<?xml version="1.0" encoding="utf-8"?>
<!-- Generator: Adobe Illustrator 24.0.1, SVG Export Plug-In . SVG Version: 6.00 Build 0)  -->
<svg version="1.1" id="Layer_1" xmlns="http://www.w3.org/2000/svg" xmlns:xlink="http://www.w3.org/1999/xlink" x="0px" y="0px"
	 viewBox="0 0 640 480" style="enable-background:new 0 0 640 480;" xml:space="preserve">
<g>
	<path d="M311.77,57.86c-0.41,1.01-1.31,0.63-1.96,0.56c-4.91-0.48-9.83-0.33-14.75-0.25c-1.61,0.03-3.23,0.19-4.84,0.28
		c-0.29,0.02-0.58,0-1.07-0.38c-0.2-1.71-0.13-3.63-0.03-5.46c0.62-0.43,1.16-0.3,1.66-0.26c6.3,0.47,12.6,0.48,18.9,0
		c0.66-0.05,1.39-0.25,2,0.26C312.98,54.53,313.01,56.04,311.77,57.86z"/>
	<path d="M338.04,52.31c5.84,0.44,11.69,0.43,17.54,0.27c1.39-0.04,2.75-0.44,4.31-0.19c1.3,1.6,0.96,3.45,0.59,5.24
		c-0.45,0.78-1.1,0.88-1.84,0.82c-6.77-0.55-13.54-0.5-20.3,0.03c-0.11-0.04-0.28-0.09-0.29-0.17
		C339,56.83,339.17,54.97,338.04,52.31z"/>
	<path d="M335.65,58.47c-5-0.38-10.01-0.42-15.02-0.34c-2.13,0.04-4.26,0.07-6.37,0.35c-0.45-0.14-0.88-0.64-0.65-0.92
		c0.94-1.15,0.94-2.6-0.08-4.95c0.46-0.55,1.08-0.3,1.61-0.26c6.32,0.48,12.65,0.48,18.97-0.02c0.52-0.04,1.04-0.02,1.55-0.02
		C337.32,54.12,337.31,56.8,335.65,58.47z"/>
	<path d="M384.5,52.31c-0.05,2.21,0.31,4.09-0.36,6.13c-7.27-0.47-14.46-0.48-21.87,0.04c0.35-2.14,0.63-4.06-0.09-6.18
		C369.7,52.82,376.96,52.79,384.5,52.31z"/>
</g>
<g>
	<path d="M342.51,285.34c1.09,0,2.11,0.21,3.06,0.62c0.95,0.41,1.79,0.97,2.51,1.67c0.72,0.7,1.28,1.53,1.7,2.49
		c0.41,0.95,0.62,1.97,0.62,3.06c0,1.29-0.29,2.48-0.88,3.57c0.91,0.41,1.74,0.95,2.49,1.61c0.75,0.66,1.39,1.4,1.94,2.22
		c0.54,0.82,0.96,1.72,1.26,2.69c0.29,0.97,0.44,1.98,0.44,3.04c0,1.44-0.28,2.8-0.84,4.07c-0.56,1.28-1.31,2.39-2.25,3.33
		c-0.94,0.94-2.05,1.69-3.33,2.25c-1.28,0.56-2.64,0.84-4.07,0.84h-9.91c-0.15,0-0.28-0.07-0.4-0.2c-0.12-0.13-0.18-0.27-0.18-0.42
		v-30.26c0-0.38,0.19-0.57,0.57-0.57H342.51z M339.91,296h2.6c0.73,0,1.36-0.26,1.87-0.77c0.51-0.51,0.77-1.2,0.77-2.05
		c0-0.94-0.26-1.66-0.77-2.16c-0.51-0.5-1.14-0.75-1.87-0.75h-2.6V296z M345.15,311.86c0.7,0,1.38-0.14,2.03-0.42
		c0.65-0.28,1.2-0.65,1.67-1.12c0.47-0.47,0.84-1.03,1.12-1.67c0.28-0.65,0.42-1.42,0.42-2.34c0-0.82-0.14-1.55-0.42-2.18
		c-0.28-0.63-0.65-1.18-1.12-1.65c-0.47-0.47-1.03-0.84-1.67-1.12c-0.65-0.28-1.32-0.42-2.03-0.42h-5.24v10.92H345.15z"/>
	<path d="M364.23,316.79h-4.05c-0.18,0-0.32-0.07-0.44-0.2c-0.12-0.13-0.18-0.27-0.18-0.42v-21.85c0-1.26,0.24-2.45,0.73-3.57
		c0.48-1.12,1.15-2.09,1.98-2.91c0.84-0.82,1.81-1.48,2.93-1.96c1.12-0.48,2.31-0.73,3.57-0.73c1.26,0,2.45,0.24,3.57,0.73
		c1.12,0.48,2.08,1.14,2.91,1.96c0.82,0.82,1.48,1.79,1.96,2.91c0.48,1.12,0.73,2.31,0.73,3.57v21.85c0,0.15-0.06,0.29-0.18,0.42
		c-0.12,0.13-0.26,0.2-0.44,0.2h-4.05c-0.15,0-0.28-0.07-0.4-0.2c-0.12-0.13-0.18-0.27-0.18-0.42V306h-7.88v10.18
		c0,0.15-0.06,0.29-0.18,0.42C364.5,316.73,364.37,316.79,364.23,316.79z M372.68,301.07v-7.05c0-1.09-0.38-2.01-1.15-2.78
		c-0.76-0.76-1.69-1.14-2.78-1.14c-1.12,0-2.06,0.38-2.82,1.14c-0.76,0.76-1.15,1.69-1.15,2.78v7.05H372.68z"/>
	<path d="M387.97,285.39c0.18,0,0.35,0.04,0.53,0.11c0.18,0.07,0.32,0.18,0.44,0.33l4.89,7l4.89-7c0.09-0.15,0.23-0.26,0.42-0.33
		c0.19-0.07,0.37-0.11,0.55-0.11h4.01c0.41,0,0.62,0.19,0.62,0.57v30.26c0,0.38-0.21,0.57-0.62,0.57h-4.01
		c-0.44,0-0.66-0.19-0.66-0.57l0.04-22.46l-4.89,6.96c-0.09,0.15-0.21,0.22-0.35,0.22c-0.15,0-0.26-0.07-0.35-0.22l-4.89-6.96v22.46
		c-0.03,0.38-0.24,0.57-0.62,0.57h-4.01c-0.41,0-0.62-0.19-0.62-0.57v-30.26c0-0.38,0.2-0.57,0.62-0.57H387.97z"/>
	<path d="M417.79,285.34c1.09,0,2.11,0.21,3.06,0.62c0.95,0.41,1.79,0.97,2.51,1.67c0.72,0.7,1.28,1.53,1.7,2.49
		c0.41,0.95,0.62,1.97,0.62,3.06c0,1.29-0.29,2.48-0.88,3.57c0.91,0.41,1.74,0.95,2.49,1.61c0.75,0.66,1.39,1.4,1.94,2.22
		c0.54,0.82,0.96,1.72,1.26,2.69c0.29,0.97,0.44,1.98,0.44,3.04c0,1.44-0.28,2.8-0.84,4.07c-0.56,1.28-1.31,2.39-2.25,3.33
		c-0.94,0.94-2.05,1.69-3.33,2.25c-1.28,0.56-2.64,0.84-4.07,0.84h-9.91c-0.15,0-0.28-0.07-0.4-0.2c-0.12-0.13-0.18-0.27-0.18-0.42
		v-30.26c0-0.38,0.19-0.57,0.57-0.57H417.79z M415.19,296h2.6c0.73,0,1.36-0.26,1.87-0.77c0.51-0.51,0.77-1.2,0.77-2.05
		c0-0.94-0.26-1.66-0.77-2.16c-0.51-0.5-1.14-0.75-1.87-0.75h-2.6V296z M420.43,311.86c0.7,0,1.38-0.14,2.03-0.42
		c0.65-0.28,1.2-0.65,1.67-1.12c0.47-0.47,0.84-1.03,1.12-1.67c0.28-0.65,0.42-1.42,0.42-2.34c0-0.82-0.14-1.55-0.42-2.18
		c-0.28-0.63-0.65-1.18-1.12-1.65c-0.47-0.47-1.03-0.84-1.67-1.12c-0.65-0.28-1.32-0.42-2.03-0.42h-5.24v10.92H420.43z"/>
	<path d="M443.11,285.12c1.56,0,2.99,0.41,4.29,1.24c1.31,0.83,2.43,1.96,3.37,3.4c0.94,1.44,1.67,3.13,2.2,5.07
		c0.53,1.94,0.79,4,0.79,6.18c0,2.18-0.26,4.24-0.79,6.18c-0.53,1.94-1.26,3.63-2.2,5.07c-0.94,1.44-2.06,2.57-3.37,3.4
		c-1.31,0.83-2.74,1.24-4.29,1.24c-1.56,0-2.99-0.41-4.29-1.24c-1.31-0.83-2.43-1.96-3.37-3.4c-0.94-1.44-1.67-3.13-2.2-5.07
		c-0.53-1.94-0.79-4-0.79-6.18c0-2.18,0.26-4.24,0.79-6.18c0.53-1.94,1.26-3.63,2.2-5.07c0.94-1.44,2.06-2.57,3.37-3.4
		C440.13,285.54,441.56,285.12,443.11,285.12z M443.11,309.71c0.88,0,1.67-0.24,2.36-0.72c0.69-0.48,1.27-1.12,1.74-1.93
		c0.47-0.81,0.83-1.73,1.08-2.78c0.25-1.05,0.37-2.14,0.37-3.27s-0.13-2.22-0.4-3.27c-0.26-1.05-0.64-1.97-1.12-2.78
		c-0.48-0.81-1.07-1.45-1.76-1.93c-0.69-0.48-1.45-0.72-2.27-0.72s-1.58,0.24-2.27,0.72c-0.69,0.48-1.28,1.12-1.76,1.93
		c-0.48,0.81-0.86,1.73-1.12,2.78c-0.26,1.05-0.4,2.14-0.4,3.27s0.13,2.22,0.4,3.27c0.26,1.05,0.64,1.96,1.12,2.75
		s1.07,1.43,1.76,1.93C441.54,309.46,442.29,309.71,443.11,309.71z"/>
	<path d="M467.34,285.12c1.56,0,2.99,0.41,4.29,1.24c1.31,0.83,2.43,1.96,3.37,3.4c0.94,1.44,1.67,3.13,2.2,5.07
		c0.53,1.94,0.79,4,0.79,6.18c0,2.18-0.26,4.24-0.79,6.18c-0.53,1.94-1.26,3.63-2.2,5.07c-0.94,1.44-2.06,2.57-3.37,3.4
		c-1.31,0.83-2.74,1.24-4.29,1.24c-1.56,0-2.99-0.41-4.3-1.24c-1.31-0.83-2.43-1.96-3.37-3.4c-0.94-1.44-1.67-3.13-2.2-5.07
		c-0.53-1.94-0.79-4-0.79-6.18c0-2.18,0.26-4.24,0.79-6.18c0.53-1.94,1.26-3.63,2.2-5.07c0.94-1.44,2.06-2.57,3.37-3.4
		C464.35,285.54,465.78,285.12,467.34,285.12z M467.34,309.71c0.88,0,1.67-0.24,2.36-0.72c0.69-0.48,1.27-1.12,1.74-1.93
		c0.47-0.81,0.83-1.73,1.08-2.78c0.25-1.05,0.37-2.14,0.37-3.27s-0.13-2.22-0.4-3.27c-0.26-1.05-0.64-1.97-1.12-2.78
		c-0.48-0.81-1.07-1.45-1.76-1.93c-0.69-0.48-1.45-0.72-2.27-0.72c-0.82,0-1.58,0.24-2.27,0.72c-0.69,0.48-1.28,1.12-1.76,1.93
		c-0.48,0.81-0.86,1.73-1.12,2.78c-0.26,1.05-0.4,2.14-0.4,3.27s0.13,2.22,0.4,3.27c0.26,1.05,0.64,1.96,1.12,2.75
		c0.48,0.78,1.07,1.43,1.76,1.93C465.76,309.46,466.52,309.71,467.34,309.71z"/>
</g>
<g>
	<path d="M180.08,293.6h10.69c0.3,0,0.45,0.14,0.45,0.42v2.75c0,0.3-0.15,0.45-0.45,0.45h-3.4v19.05c0,0.11-0.04,0.21-0.13,0.31
		c-0.09,0.1-0.19,0.15-0.32,0.15h-2.98c-0.11,0-0.21-0.05-0.29-0.15c-0.09-0.1-0.13-0.2-0.13-0.31v-19.05h-3.43
		c-0.28,0-0.42-0.15-0.42-0.45v-2.75C179.66,293.74,179.8,293.6,180.08,293.6z"/>
	<path d="M194.27,293.63h2.95c0.3,0,0.45,0.14,0.45,0.42v7.48h5.77v-7.48c0-0.28,0.15-0.42,0.45-0.42h2.98
		c0.28,0,0.42,0.14,0.42,0.42v22.26c0,0.28-0.14,0.42-0.42,0.42h-2.98c-0.3,0-0.45-0.14-0.45-0.42v-11.14h-5.77v11.14
		c0,0.28-0.15,0.42-0.45,0.42h-2.95c-0.3,0-0.45-0.14-0.45-0.42v-22.26C193.81,293.77,193.97,293.63,194.27,293.63z"/>
	<path d="M211.83,293.6h10.66c0.3,0,0.45,0.14,0.45,0.42v2.75c0,0.3-0.15,0.45-0.45,0.45h-7.26v4.31h5.34
		c0.28,0,0.42,0.14,0.42,0.42v2.75c0,0.11-0.04,0.21-0.13,0.31c-0.09,0.1-0.18,0.15-0.29,0.15h-5.34v7.94h7.26
		c0.3,0,0.45,0.14,0.45,0.42v2.75c0,0.11-0.04,0.21-0.13,0.31c-0.09,0.1-0.19,0.15-0.32,0.15h-10.66c-0.13,0-0.24-0.05-0.32-0.15
		c-0.09-0.1-0.13-0.2-0.13-0.31v-22.25C211.37,293.74,211.52,293.6,211.83,293.6z"/>
</g>
<g>
	<path d="M244.23,285c1.79,0,3.48,0.21,5.05,0.62c1.57,0.41,2.96,0.97,4.14,1.67c1.19,0.7,2.12,1.53,2.8,2.49
		c0.68,0.95,1.02,1.98,1.02,3.06c0,1.29-0.48,2.48-1.45,3.57c1.5,0.41,2.87,0.95,4.11,1.61c1.24,0.66,2.3,1.4,3.2,2.22
		c0.9,0.82,1.59,1.72,2.07,2.69c0.48,0.97,0.73,1.98,0.73,3.04c0,1.44-0.46,2.8-1.38,4.07c-0.92,1.28-2.16,2.39-3.71,3.33
		c-1.55,0.94-3.38,1.69-5.49,2.25c-2.11,0.56-4.35,0.84-6.72,0.84h-16.36c-0.24,0-0.46-0.07-0.65-0.2
		c-0.19-0.13-0.29-0.27-0.29-0.42v-30.26c0-0.38,0.31-0.57,0.94-0.57H244.23z M239.94,295.66h4.29c1.21,0,2.24-0.26,3.09-0.77
		c0.85-0.51,1.27-1.2,1.27-2.05c0-0.94-0.42-1.66-1.27-2.16c-0.85-0.5-1.88-0.75-3.09-0.75h-4.29V295.66z M248.59,311.52
		c1.16,0,2.28-0.14,3.34-0.42c1.07-0.28,1.99-0.65,2.76-1.12c0.77-0.47,1.39-1.03,1.85-1.67c0.46-0.65,0.69-1.42,0.69-2.33
		c0-0.82-0.23-1.55-0.69-2.18c-0.46-0.63-1.08-1.18-1.85-1.65c-0.78-0.47-1.7-0.84-2.76-1.12c-1.07-0.28-2.18-0.42-3.34-0.42h-8.65
		v10.92H248.59z"/>
	<path d="M273.81,316.45c-0.68,0-1.02-0.19-1.02-0.57v-30.26c0-0.38,0.34-0.57,1.02-0.57h6.62c0.68,0,1.02,0.19,1.02,0.57v30.26
		c0,0.38-0.34,0.57-1.02,0.57H273.81z"/>
	<path d="M318.01,285.7c0.24,0.03,0.46,0.12,0.65,0.26c0.19,0.15,0.29,0.29,0.29,0.44v3.83c0,0.38-0.32,0.54-0.95,0.48
		c-0.53-0.06-1.08-0.11-1.64-0.15c-0.56-0.04-1.13-0.07-1.71-0.07c-2.42,0-4.68,0.28-6.76,0.84c-2.08,0.56-3.91,1.31-5.49,2.25
		c-1.58,0.94-2.81,2.05-3.71,3.33c-0.9,1.28-1.34,2.8-1.34,4.56c0,1.67,0.45,3.14,1.34,4.4c0.9,1.26,2.13,2.37,3.71,3.33
		c1.57,0.95,3.4,1.7,5.49,2.25c2.08,0.54,4.34,0.81,6.76,0.81v-10.35h-3.78c-0.24,0-0.47-0.06-0.69-0.18
		c-0.22-0.12-0.33-0.25-0.33-0.4v-3.74c0-0.15,0.11-0.29,0.33-0.42c0.22-0.13,0.45-0.2,0.69-0.2h11.41c0.29,0,0.53,0.07,0.73,0.2
		c0.19,0.13,0.29,0.27,0.29,0.42v19.03c0,0.38-0.34,0.57-1.02,0.57h-7.63c-3.59,0-6.95-0.41-10.1-1.23
		c-3.15-0.82-5.9-1.94-8.25-3.37c-2.35-1.42-4.21-3.09-5.56-5c-1.36-1.91-2.04-3.95-2.04-6.12c0-2.29,0.68-4.39,2.04-6.3
		c1.36-1.91,3.21-3.57,5.56-4.98c2.35-1.41,5.1-2.53,8.25-3.35c3.15-0.82,6.52-1.23,10.1-1.23c0.53,0,1.09,0.01,1.67,0.02
		C316.92,285.65,317.48,285.68,318.01,285.7z"/>
</g>
</svg>
