<?xml version="1.0" encoding="utf-8"?>
<!-- Generator: Adobe Illustrator 24.0.1, SVG Export Plug-In . SVG Version: 6.00 Build 0)  -->
<svg version="1.1" id="Layer_1" xmlns="http://www.w3.org/2000/svg" xmlns:xlink="http://www.w3.org/1999/xlink" x="0px" y="0px"
	 viewBox="0 0 640 480" style="enable-background:new 0 0 640 480;" xml:space="preserve">
<style type="text/css">
	.st0{fill:#FFFFFF;}
</style>
<g>
	<g>
		<path d="M435.5,343.9c-0.3,0.7-0.8,0.4-1.2,0.4c-3.1-0.3-6.2-0.2-9.4-0.2c-1,0-2,0.1-3.1,0.2c-0.2,0-0.4,0-0.7-0.2
			c-0.1-1.1-0.1-2.4,0-3.5c0.4-0.3,0.7-0.2,1.1-0.2c4,0.3,8,0.3,12,0c0.4,0,0.9-0.2,1.3,0.2C436.3,341.7,436.3,342.7,435.5,343.9z"
			/>
		<path d="M452.8,340.3c3.7,0.3,7.4,0.3,11.1,0.2c0.9,0,1.7-0.3,2.7-0.1c0.8,1,0.6,2.2,0.4,3.4c-0.3,0.5-0.7,0.6-1.2,0.5
			c-4.3-0.4-8.6-0.3-12.8,0c-0.1,0-0.2-0.1-0.2-0.1C453.4,343.2,453.6,342,452.8,340.3z"/>
		<path d="M450.9,344.3c-3.2-0.2-6.3-0.3-9.5-0.2c-1.3,0-2.7,0-4,0.2c-0.3-0.1-0.6-0.4-0.4-0.6c0.6-0.7,0.6-1.7-0.1-3.2
			c0.3-0.4,0.7-0.2,1-0.2c4,0.3,8,0.3,12,0c0.3,0,0.7,0,1,0C452,341.5,452,343.2,450.9,344.3z"/>
		<path d="M482.9,340.3c0,1.4,0.2,2.7-0.2,4c-4.7-0.3-9.4-0.3-14.2,0c0.2-1.4,0.4-2.6-0.1-4C473.4,340.6,478.1,340.6,482.9,340.3z"
			/>
	</g>
	<g>
		<g>
			<path class="st0" d="M433.5,341.9c-0.3,0.7-0.8,0.4-1.2,0.4c-3.1-0.3-6.2-0.2-9.4-0.2c-1,0-2,0.1-3.1,0.2c-0.2,0-0.4,0-0.7-0.2
				c-0.1-1.1-0.1-2.4,0-3.5c0.4-0.3,0.7-0.2,1.1-0.2c4,0.3,8,0.3,12,0c0.4,0,0.9-0.2,1.3,0.2C434.3,339.7,434.3,340.7,433.5,341.9z"
				/>
			<path class="st0" d="M450.8,338.3c3.7,0.3,7.4,0.3,11.1,0.2c0.9,0,1.7-0.3,2.7-0.1c0.8,1,0.6,2.2,0.4,3.4
				c-0.3,0.5-0.7,0.6-1.2,0.5c-4.3-0.4-8.6-0.3-12.8,0c-0.1,0-0.2-0.1-0.2-0.1C451.4,341.2,451.6,340,450.8,338.3z"/>
			<path class="st0" d="M448.9,342.3c-3.2-0.2-6.3-0.3-9.5-0.2c-1.3,0-2.7,0-4,0.2c-0.3-0.1-0.6-0.4-0.4-0.6
				c0.6-0.7,0.6-1.7-0.1-3.2c0.3-0.4,0.7-0.2,1-0.2c4,0.3,8,0.3,12,0c0.3,0,0.7,0,1,0C450,339.5,450,341.2,448.9,342.3z"/>
			<path class="st0" d="M480.9,338.3c0,1.4,0.2,2.7-0.2,4c-4.7-0.3-9.4-0.3-14.2,0c0.2-1.4,0.4-2.6-0.1-4
				C471.4,338.6,476.1,338.6,480.9,338.3z"/>
		</g>
	</g>
</g>
<g>
	<g>
		<path d="M199,343.4c-0.3,0.7-0.8,0.4-1.2,0.4c-3.1-0.3-6.2-0.2-9.4-0.2c-1,0-2,0.1-3.1,0.2c-0.2,0-0.4,0-0.7-0.2
			c-0.1-1.1-0.1-2.4,0-3.5c0.4-0.3,0.7-0.2,1.1-0.2c4,0.3,8,0.3,12,0c0.4,0,0.9-0.2,1.3,0.2C199.8,341.3,199.8,342.3,199,343.4z"/>
		<path d="M216.4,339.9c3.7,0.3,7.4,0.3,11.1,0.2c0.9,0,1.7-0.3,2.7-0.1c0.8,1,0.6,2.2,0.4,3.4c-0.3,0.5-0.7,0.6-1.2,0.5
			c-4.3-0.4-8.6-0.3-12.8,0c-0.1,0-0.2-0.1-0.2-0.1C217,342.8,217.1,341.6,216.4,339.9z"/>
		<path d="M214.4,343.8c-3.2-0.2-6.3-0.3-9.5-0.2c-1.3,0-2.7,0-4,0.2c-0.3-0.1-0.6-0.4-0.4-0.6c0.6-0.7,0.6-1.7-0.1-3.2
			c0.3-0.4,0.7-0.2,1-0.2c4,0.3,8,0.3,12,0c0.3,0,0.7,0,1,0C215.5,341,215.5,342.8,214.4,343.8z"/>
		<path d="M246.5,339.9c0,1.4,0.2,2.7-0.2,4c-4.7-0.3-9.4-0.3-14.2,0c0.2-1.4,0.4-2.6-0.1-4C236.9,340.2,241.6,340.2,246.5,339.9z"
			/>
	</g>
	<g>
		<g>
			<path class="st0" d="M197,341.4c-0.3,0.7-0.8,0.4-1.2,0.4c-3.1-0.3-6.2-0.2-9.4-0.2c-1,0-2,0.1-3.1,0.2c-0.2,0-0.4,0-0.7-0.2
				c-0.1-1.1-0.1-2.4,0-3.5c0.4-0.3,0.7-0.2,1.1-0.2c4,0.3,8,0.3,12,0c0.4,0,0.9-0.2,1.3,0.2C197.8,339.3,197.8,340.3,197,341.4z"/>
			<path class="st0" d="M214.4,337.9c3.7,0.3,7.4,0.3,11.1,0.2c0.9,0,1.7-0.3,2.7-0.1c0.8,1,0.6,2.2,0.4,3.4
				c-0.3,0.5-0.7,0.6-1.2,0.5c-4.3-0.4-8.6-0.3-12.8,0c-0.1,0-0.2-0.1-0.2-0.1C215,340.8,215.1,339.6,214.4,337.9z"/>
			<path class="st0" d="M212.4,341.8c-3.2-0.2-6.3-0.3-9.5-0.2c-1.3,0-2.7,0-4,0.2c-0.3-0.1-0.6-0.4-0.4-0.6
				c0.6-0.7,0.6-1.7-0.1-3.2c0.3-0.4,0.7-0.2,1-0.2c4,0.3,8,0.3,12,0c0.3,0,0.7,0,1,0C213.5,339,213.5,340.8,212.4,341.8z"/>
			<path class="st0" d="M244.5,337.9c0,1.4,0.2,2.7-0.2,4c-4.7-0.3-9.4-0.3-14.2,0c0.2-1.4,0.4-2.6-0.1-4
				C234.9,338.2,239.6,338.2,244.5,337.9z"/>
		</g>
	</g>
</g>
<g>
	<g>
		<path d="M347.4,287.3c1.1,0,2.1,0.2,3.1,0.6s1.8,1,2.5,1.7s1.3,1.5,1.7,2.5c0.4,1,0.6,2,0.6,3.1c0,1.3-0.3,2.5-0.9,3.6
			c0.9,0.4,1.7,1,2.5,1.6c0.8,0.7,1.4,1.4,1.9,2.2c0.5,0.8,1,1.7,1.3,2.7c0.3,1,0.4,2,0.4,3c0,1.4-0.3,2.8-0.8,4.1
			c-0.6,1.3-1.3,2.4-2.2,3.3c-0.9,0.9-2,1.7-3.3,2.2s-2.6,0.8-4.1,0.8h-9.9c-0.1,0-0.3-0.1-0.4-0.2s-0.2-0.3-0.2-0.4v-30.3
			c0-0.4,0.2-0.6,0.6-0.6L347.4,287.3L347.4,287.3z M344.8,298h2.6c0.7,0,1.4-0.3,1.9-0.8c0.5-0.5,0.8-1.2,0.8-2
			c0-0.9-0.3-1.7-0.8-2.2c-0.5-0.5-1.1-0.8-1.9-0.8h-2.6V298z M350.1,313.9c0.7,0,1.4-0.1,2-0.4s1.2-0.6,1.7-1.1s0.8-1,1.1-1.7
			c0.3-0.6,0.4-1.4,0.4-2.3c0-0.8-0.1-1.5-0.4-2.2s-0.6-1.2-1.1-1.6s-1-0.8-1.7-1.1c-0.6-0.3-1.3-0.4-2-0.4h-5.2v10.9H350.1z"/>
		<path d="M369.2,318.8h-4c-0.2,0-0.3-0.1-0.4-0.2s-0.2-0.3-0.2-0.4v-21.9c0-1.3,0.2-2.5,0.7-3.6c0.5-1.1,1.1-2.1,2-2.9
			c0.8-0.8,1.8-1.5,2.9-2c1.1-0.5,2.3-0.7,3.6-0.7s2.5,0.2,3.6,0.7c1.1,0.5,2.1,1.1,2.9,2c0.8,0.8,1.5,1.8,2,2.9
			c0.5,1.1,0.7,2.3,0.7,3.6v21.9c0,0.1-0.1,0.3-0.2,0.4s-0.3,0.2-0.4,0.2h-4c-0.1,0-0.3-0.1-0.4-0.2s-0.2-0.3-0.2-0.4V308h-7.9v10.2
			c0,0.1-0.1,0.3-0.2,0.4C369.4,318.7,369.3,318.8,369.2,318.8z M377.6,303.1v-7c0-1.1-0.4-2-1.1-2.8c-0.8-0.8-1.7-1.1-2.8-1.1
			c-1.1,0-2.1,0.4-2.8,1.1s-1.1,1.7-1.1,2.8v7H377.6z"/>
		<path d="M392.9,287.4c0.2,0,0.4,0,0.5,0.1c0.2,0.1,0.3,0.2,0.4,0.3l4.9,7l4.9-7c0.1-0.1,0.2-0.3,0.4-0.3c0.2-0.1,0.4-0.1,0.5-0.1
			h4c0.4,0,0.6,0.2,0.6,0.6v30.3c0,0.4-0.2,0.6-0.6,0.6h-4c-0.4,0-0.7-0.2-0.7-0.6l0-22.5l-4.9,7c-0.1,0.1-0.2,0.2-0.4,0.2
			c-0.1,0-0.3-0.1-0.4-0.2l-4.9-7v22.5c0,0.4-0.2,0.6-0.6,0.6h-4c-0.4,0-0.6-0.2-0.6-0.6V288c0-0.4,0.2-0.6,0.6-0.6H392.9z"/>
		<path d="M422.7,287.3c1.1,0,2.1,0.2,3.1,0.6s1.8,1,2.5,1.7s1.3,1.5,1.7,2.5c0.4,1,0.6,2,0.6,3.1c0,1.3-0.3,2.5-0.9,3.6
			c0.9,0.4,1.7,1,2.5,1.6c0.8,0.7,1.4,1.4,1.9,2.2c0.5,0.8,1,1.7,1.3,2.7c0.3,1,0.4,2,0.4,3c0,1.4-0.3,2.8-0.8,4.1
			c-0.6,1.3-1.3,2.4-2.2,3.3c-0.9,0.9-2,1.7-3.3,2.2s-2.6,0.8-4.1,0.8h-9.9c-0.1,0-0.3-0.1-0.4-0.2s-0.2-0.3-0.2-0.4v-30.3
			c0-0.4,0.2-0.6,0.6-0.6L422.7,287.3L422.7,287.3z M420.1,298h2.6c0.7,0,1.4-0.3,1.9-0.8c0.5-0.5,0.8-1.2,0.8-2
			c0-0.9-0.3-1.7-0.8-2.2c-0.5-0.5-1.1-0.8-1.9-0.8h-2.6V298z M425.4,313.9c0.7,0,1.4-0.1,2-0.4s1.2-0.6,1.7-1.1s0.8-1,1.1-1.7
			c0.3-0.6,0.4-1.4,0.4-2.3c0-0.8-0.1-1.5-0.4-2.2s-0.6-1.2-1.1-1.6s-1-0.8-1.7-1.1c-0.6-0.3-1.3-0.4-2-0.4h-5.2v10.9H425.4z"/>
		<path d="M448,287.1c1.6,0,3,0.4,4.3,1.2c1.3,0.8,2.4,2,3.4,3.4s1.7,3.1,2.2,5.1s0.8,4,0.8,6.2s-0.3,4.2-0.8,6.2s-1.3,3.6-2.2,5.1
			s-2.1,2.6-3.4,3.4s-2.7,1.2-4.3,1.2c-1.6,0-3-0.4-4.3-1.2c-1.3-0.8-2.4-2-3.4-3.4s-1.7-3.1-2.2-5.1s-0.8-4-0.8-6.2
			s0.3-4.2,0.8-6.2s1.3-3.6,2.2-5.1s2.1-2.6,3.4-3.4C445.1,287.5,446.5,287.1,448,287.1z M448,311.7c0.9,0,1.7-0.2,2.4-0.7
			c0.7-0.5,1.3-1.1,1.7-1.9s0.8-1.7,1.1-2.8s0.4-2.1,0.4-3.3s-0.1-2.2-0.4-3.3c-0.3-1-0.6-2-1.1-2.8c-0.5-0.8-1.1-1.5-1.8-1.9
			c-0.7-0.5-1.5-0.7-2.3-0.7s-1.6,0.2-2.3,0.7s-1.3,1.1-1.8,1.9s-0.9,1.7-1.1,2.8s-0.4,2.1-0.4,3.3s0.1,2.2,0.4,3.3
			c0.3,1,0.6,2,1.1,2.8s1.1,1.4,1.8,1.9C446.5,311.5,447.2,311.7,448,311.7z"/>
		<path d="M472.3,287.1c1.6,0,3,0.4,4.3,1.2c1.3,0.8,2.4,2,3.4,3.4s1.7,3.1,2.2,5.1s0.8,4,0.8,6.2s-0.3,4.2-0.8,6.2
			s-1.3,3.6-2.2,5.1s-2.1,2.6-3.4,3.4s-2.7,1.2-4.3,1.2c-1.6,0-3-0.4-4.3-1.2s-2.4-2-3.4-3.4s-1.7-3.1-2.2-5.1s-0.8-4-0.8-6.2
			s0.3-4.2,0.8-6.2s1.3-3.6,2.2-5.1s2.1-2.6,3.4-3.4C469.3,287.5,470.7,287.1,472.3,287.1z M472.3,311.7c0.9,0,1.7-0.2,2.4-0.7
			c0.7-0.5,1.3-1.1,1.7-1.9s0.8-1.7,1.1-2.8s0.4-2.1,0.4-3.3s-0.1-2.2-0.4-3.3c-0.3-1-0.6-2-1.1-2.8c-0.5-0.8-1.1-1.5-1.8-1.9
			c-0.7-0.5-1.5-0.7-2.3-0.7c-0.8,0-1.6,0.2-2.3,0.7s-1.3,1.1-1.8,1.9s-0.9,1.7-1.1,2.8s-0.4,2.1-0.4,3.3s0.1,2.2,0.4,3.3
			c0.3,1,0.6,2,1.1,2.8c0.5,0.8,1.1,1.4,1.8,1.9C470.7,311.5,471.4,311.7,472.3,311.7z"/>
		<path d="M185,295.6h10.7c0.3,0,0.4,0.1,0.4,0.4v2.8c0,0.3-0.1,0.5-0.4,0.5h-3.4v19c0,0.1,0,0.2-0.1,0.3c-0.1,0.1-0.2,0.1-0.3,0.1
			h-3c-0.1,0-0.2,0-0.3-0.1c-0.1-0.1-0.1-0.2-0.1-0.3v-19H185c-0.3,0-0.4-0.1-0.4-0.5V296C184.6,295.7,184.7,295.6,185,295.6z"/>
		<path d="M199.2,295.6h2.9c0.3,0,0.4,0.1,0.4,0.4v7.5h5.8v-7.5c0-0.3,0.1-0.4,0.4-0.4h3c0.3,0,0.4,0.1,0.4,0.4v22.3
			c0,0.3-0.1,0.4-0.4,0.4h-3c-0.3,0-0.4-0.1-0.4-0.4v-11.1h-5.8v11.1c0,0.3-0.1,0.4-0.4,0.4h-2.9c-0.3,0-0.4-0.1-0.4-0.4v-22.3
			C198.7,295.8,198.9,295.6,199.2,295.6z"/>
		<path d="M216.8,295.6h10.7c0.3,0,0.4,0.1,0.4,0.4v2.8c0,0.3-0.1,0.5-0.4,0.5h-7.3v4.3h5.3c0.3,0,0.4,0.1,0.4,0.4v2.8
			c0,0.1,0,0.2-0.1,0.3c-0.1,0.1-0.2,0.1-0.3,0.1h-5.3v7.9h7.3c0.3,0,0.4,0.1,0.4,0.4v2.8c0,0.1,0,0.2-0.1,0.3
			c-0.1,0.1-0.2,0.1-0.3,0.1h-10.7c-0.1,0-0.2,0-0.3-0.1c-0.1-0.1-0.1-0.2-0.1-0.3V296C216.3,295.7,216.4,295.6,216.8,295.6z"/>
		<path d="M249.2,287c1.8,0,3.5,0.2,5.1,0.6s3,1,4.1,1.7c1.2,0.7,2.1,1.5,2.8,2.5c0.7,1,1,2,1,3.1c0,1.3-0.5,2.5-1.4,3.6
			c1.5,0.4,2.9,1,4.1,1.6c1.2,0.7,2.3,1.4,3.2,2.2c0.9,0.8,1.6,1.7,2.1,2.7s0.7,2,0.7,3c0,1.4-0.5,2.8-1.4,4.1
			c-0.9,1.3-2.2,2.4-3.7,3.3c-1.5,0.9-3.4,1.7-5.5,2.2c-2.1,0.6-4.4,0.8-6.7,0.8h-16.4c-0.2,0-0.5-0.1-0.6-0.2
			c-0.2-0.1-0.3-0.3-0.3-0.4v-30.3c0-0.4,0.3-0.6,0.9-0.6L249.2,287L249.2,287z M244.9,297.7h4.3c1.2,0,2.2-0.3,3.1-0.8
			c0.9-0.5,1.3-1.2,1.3-2c0-0.9-0.4-1.7-1.3-2.2s-1.9-0.8-3.1-0.8h-4.3V297.7z M253.5,313.5c1.2,0,2.3-0.1,3.3-0.4
			c1.1-0.3,2-0.6,2.8-1.1s1.4-1,1.8-1.7c0.5-0.6,0.7-1.4,0.7-2.3c0-0.8-0.2-1.5-0.7-2.2s-1.1-1.2-1.9-1.6c-0.8-0.5-1.7-0.8-2.8-1.1
			c-1.1-0.3-2.2-0.4-3.3-0.4h-8.6v10.9L253.5,313.5L253.5,313.5z"/>
		<path d="M278.7,318.5c-0.7,0-1-0.2-1-0.6v-30.3c0-0.4,0.3-0.6,1-0.6h6.6c0.7,0,1,0.2,1,0.6v30.3c0,0.4-0.3,0.6-1,0.6H278.7z"/>
		<path d="M322.9,287.7c0.2,0,0.5,0.1,0.6,0.3c0.2,0.1,0.3,0.3,0.3,0.4v3.8c0,0.4-0.3,0.5-1,0.5c-0.5-0.1-1.1-0.1-1.6-0.1
			c-0.6,0-1.1-0.1-1.7-0.1c-2.4,0-4.7,0.3-6.8,0.8c-2.1,0.6-3.9,1.3-5.5,2.2s-2.8,2-3.7,3.3s-1.3,2.8-1.3,4.6c0,1.7,0.5,3.1,1.3,4.4
			c0.9,1.3,2.1,2.4,3.7,3.3c1.6,1,3.4,1.7,5.5,2.2c2.1,0.5,4.3,0.8,6.8,0.8v-10.4h-3.8c-0.2,0-0.5-0.1-0.7-0.2s-0.3-0.2-0.3-0.4
			v-3.7c0-0.1,0.1-0.3,0.3-0.4s0.5-0.2,0.7-0.2h11.4c0.3,0,0.5,0.1,0.7,0.2c0.2,0.1,0.3,0.3,0.3,0.4v19c0,0.4-0.3,0.6-1,0.6h-7.6
			c-3.6,0-7-0.4-10.1-1.2s-5.9-1.9-8.2-3.4c-2.4-1.4-4.2-3.1-5.6-5c-1.4-1.9-2-4-2-6.1c0-2.3,0.7-4.4,2-6.3c1.4-1.9,3.2-3.6,5.6-5
			s5.1-2.5,8.2-3.4s6.5-1.2,10.1-1.2c0.5,0,1.1,0,1.7,0C321.8,287.6,322.4,287.7,322.9,287.7z"/>
	</g>
	<g>
		<g>
			<g>
				<path class="st0" d="M345.4,285.3c1.1,0,2.1,0.2,3.1,0.6s1.8,1,2.5,1.7s1.3,1.5,1.7,2.5c0.4,1,0.6,2,0.6,3.1
					c0,1.3-0.3,2.5-0.9,3.6c0.9,0.4,1.7,1,2.5,1.6c0.8,0.7,1.4,1.4,1.9,2.2c0.5,0.8,1,1.7,1.3,2.7c0.3,1,0.4,2,0.4,3
					c0,1.4-0.3,2.8-0.8,4.1c-0.6,1.3-1.3,2.4-2.2,3.3c-0.9,0.9-2,1.7-3.3,2.2s-2.6,0.8-4.1,0.8h-9.9c-0.1,0-0.3-0.1-0.4-0.2
					s-0.2-0.3-0.2-0.4v-30.3c0-0.4,0.2-0.6,0.6-0.6L345.4,285.3L345.4,285.3z M342.8,296h2.6c0.7,0,1.4-0.3,1.9-0.8
					c0.5-0.5,0.8-1.2,0.8-2c0-0.9-0.3-1.7-0.8-2.2c-0.5-0.5-1.1-0.8-1.9-0.8h-2.6V296z M348.1,311.9c0.7,0,1.4-0.1,2-0.4
					s1.2-0.6,1.7-1.1s0.8-1,1.1-1.7c0.3-0.6,0.4-1.4,0.4-2.3c0-0.8-0.1-1.5-0.4-2.2s-0.6-1.2-1.1-1.6s-1-0.8-1.7-1.1
					c-0.6-0.3-1.3-0.4-2-0.4h-5.2v10.9H348.1z"/>
				<path class="st0" d="M367.2,316.8h-4c-0.2,0-0.3-0.1-0.4-0.2s-0.2-0.3-0.2-0.4v-21.9c0-1.3,0.2-2.5,0.7-3.6
					c0.5-1.1,1.1-2.1,2-2.9c0.8-0.8,1.8-1.5,2.9-2c1.1-0.5,2.3-0.7,3.6-0.7s2.5,0.2,3.6,0.7c1.1,0.5,2.1,1.1,2.9,2
					c0.8,0.8,1.5,1.8,2,2.9c0.5,1.1,0.7,2.3,0.7,3.6v21.9c0,0.1-0.1,0.3-0.2,0.4s-0.3,0.2-0.4,0.2h-4c-0.1,0-0.3-0.1-0.4-0.2
					s-0.2-0.3-0.2-0.4V306h-7.9v10.2c0,0.1-0.1,0.3-0.2,0.4C367.4,316.7,367.3,316.8,367.2,316.8z M375.6,301.1v-7
					c0-1.1-0.4-2-1.1-2.8c-0.8-0.8-1.7-1.1-2.8-1.1c-1.1,0-2.1,0.4-2.8,1.1s-1.1,1.7-1.1,2.8v7H375.6z"/>
				<path class="st0" d="M390.9,285.4c0.2,0,0.4,0,0.5,0.1c0.2,0.1,0.3,0.2,0.4,0.3l4.9,7l4.9-7c0.1-0.1,0.2-0.3,0.4-0.3
					c0.2-0.1,0.4-0.1,0.5-0.1h4c0.4,0,0.6,0.2,0.6,0.6v30.3c0,0.4-0.2,0.6-0.6,0.6h-4c-0.4,0-0.7-0.2-0.7-0.6l0-22.5l-4.9,7
					c-0.1,0.1-0.2,0.2-0.4,0.2c-0.1,0-0.3-0.1-0.4-0.2l-4.9-7v22.5c0,0.4-0.2,0.6-0.6,0.6h-4c-0.4,0-0.6-0.2-0.6-0.6V286
					c0-0.4,0.2-0.6,0.6-0.6H390.9z"/>
				<path class="st0" d="M420.7,285.3c1.1,0,2.1,0.2,3.1,0.6s1.8,1,2.5,1.7s1.3,1.5,1.7,2.5c0.4,1,0.6,2,0.6,3.1
					c0,1.3-0.3,2.5-0.9,3.6c0.9,0.4,1.7,1,2.5,1.6c0.8,0.7,1.4,1.4,1.9,2.2c0.5,0.8,1,1.7,1.3,2.7c0.3,1,0.4,2,0.4,3
					c0,1.4-0.3,2.8-0.8,4.1c-0.6,1.3-1.3,2.4-2.2,3.3c-0.9,0.9-2,1.7-3.3,2.2s-2.6,0.8-4.1,0.8h-9.9c-0.1,0-0.3-0.1-0.4-0.2
					s-0.2-0.3-0.2-0.4v-30.3c0-0.4,0.2-0.6,0.6-0.6L420.7,285.3L420.7,285.3z M418.1,296h2.6c0.7,0,1.4-0.3,1.9-0.8
					c0.5-0.5,0.8-1.2,0.8-2c0-0.9-0.3-1.7-0.8-2.2c-0.5-0.5-1.1-0.8-1.9-0.8h-2.6V296z M423.4,311.9c0.7,0,1.4-0.1,2-0.4
					s1.2-0.6,1.7-1.1s0.8-1,1.1-1.7c0.3-0.6,0.4-1.4,0.4-2.3c0-0.8-0.1-1.5-0.4-2.2s-0.6-1.2-1.1-1.6s-1-0.8-1.7-1.1
					c-0.6-0.3-1.3-0.4-2-0.4h-5.2v10.9H423.4z"/>
				<path class="st0" d="M446,285.1c1.6,0,3,0.4,4.3,1.2c1.3,0.8,2.4,2,3.4,3.4s1.7,3.1,2.2,5.1s0.8,4,0.8,6.2s-0.3,4.2-0.8,6.2
					s-1.3,3.6-2.2,5.1s-2.1,2.6-3.4,3.4s-2.7,1.2-4.3,1.2c-1.6,0-3-0.4-4.3-1.2c-1.3-0.8-2.4-2-3.4-3.4s-1.7-3.1-2.2-5.1
					s-0.8-4-0.8-6.2s0.3-4.2,0.8-6.2s1.3-3.6,2.2-5.1s2.1-2.6,3.4-3.4C443.1,285.5,444.5,285.1,446,285.1z M446,309.7
					c0.9,0,1.7-0.2,2.4-0.7c0.7-0.5,1.3-1.1,1.7-1.9s0.8-1.7,1.1-2.8s0.4-2.1,0.4-3.3s-0.1-2.2-0.4-3.3c-0.3-1-0.6-2-1.1-2.8
					c-0.5-0.8-1.1-1.5-1.8-1.9c-0.7-0.5-1.5-0.7-2.3-0.7s-1.6,0.2-2.3,0.7s-1.3,1.1-1.8,1.9s-0.9,1.7-1.1,2.8s-0.4,2.1-0.4,3.3
					s0.1,2.2,0.4,3.3c0.3,1,0.6,2,1.1,2.8s1.1,1.4,1.8,1.9C444.5,309.5,445.2,309.7,446,309.7z"/>
				<path class="st0" d="M470.3,285.1c1.6,0,3,0.4,4.3,1.2c1.3,0.8,2.4,2,3.4,3.4s1.7,3.1,2.2,5.1s0.8,4,0.8,6.2s-0.3,4.2-0.8,6.2
					s-1.3,3.6-2.2,5.1s-2.1,2.6-3.4,3.4s-2.7,1.2-4.3,1.2c-1.6,0-3-0.4-4.3-1.2s-2.4-2-3.4-3.4s-1.7-3.1-2.2-5.1s-0.8-4-0.8-6.2
					s0.3-4.2,0.8-6.2s1.3-3.6,2.2-5.1s2.1-2.6,3.4-3.4C467.3,285.5,468.7,285.1,470.3,285.1z M470.3,309.7c0.9,0,1.7-0.2,2.4-0.7
					c0.7-0.5,1.3-1.1,1.7-1.9s0.8-1.7,1.1-2.8s0.4-2.1,0.4-3.3s-0.1-2.2-0.4-3.3c-0.3-1-0.6-2-1.1-2.8c-0.5-0.8-1.1-1.5-1.8-1.9
					c-0.7-0.5-1.5-0.7-2.3-0.7c-0.8,0-1.6,0.2-2.3,0.7s-1.3,1.1-1.8,1.9s-0.9,1.7-1.1,2.8s-0.4,2.1-0.4,3.3s0.1,2.2,0.4,3.3
					c0.3,1,0.6,2,1.1,2.8c0.5,0.8,1.1,1.4,1.8,1.9C468.7,309.5,469.4,309.7,470.3,309.7z"/>
			</g>
			<g>
				<path class="st0" d="M183,293.6h10.7c0.3,0,0.4,0.1,0.4,0.4v2.8c0,0.3-0.1,0.5-0.4,0.5h-3.4v19c0,0.1,0,0.2-0.1,0.3
					c-0.1,0.1-0.2,0.1-0.3,0.1h-3c-0.1,0-0.2,0-0.3-0.1c-0.1-0.1-0.1-0.2-0.1-0.3v-19H183c-0.3,0-0.4-0.1-0.4-0.5V294
					C182.6,293.7,182.7,293.6,183,293.6z"/>
				<path class="st0" d="M197.2,293.6h2.9c0.3,0,0.4,0.1,0.4,0.4v7.5h5.8v-7.5c0-0.3,0.1-0.4,0.4-0.4h3c0.3,0,0.4,0.1,0.4,0.4v22.3
					c0,0.3-0.1,0.4-0.4,0.4h-3c-0.3,0-0.4-0.1-0.4-0.4v-11.1h-5.8v11.1c0,0.3-0.1,0.4-0.4,0.4h-2.9c-0.3,0-0.4-0.1-0.4-0.4v-22.3
					C196.7,293.8,196.9,293.6,197.2,293.6z"/>
				<path class="st0" d="M214.8,293.6h10.7c0.3,0,0.4,0.1,0.4,0.4v2.8c0,0.3-0.1,0.5-0.4,0.5h-7.3v4.3h5.3c0.3,0,0.4,0.1,0.4,0.4
					v2.8c0,0.1,0,0.2-0.1,0.3c-0.1,0.1-0.2,0.1-0.3,0.1h-5.3v7.9h7.3c0.3,0,0.4,0.1,0.4,0.4v2.8c0,0.1,0,0.2-0.1,0.3
					c-0.1,0.1-0.2,0.1-0.3,0.1h-10.7c-0.1,0-0.2,0-0.3-0.1c-0.1-0.1-0.1-0.2-0.1-0.3V294C214.3,293.7,214.4,293.6,214.8,293.6z"/>
			</g>
			<g>
				<path class="st0" d="M247.2,285c1.8,0,3.5,0.2,5.1,0.6s3,1,4.1,1.7c1.2,0.7,2.1,1.5,2.8,2.5c0.7,1,1,2,1,3.1
					c0,1.3-0.5,2.5-1.4,3.6c1.5,0.4,2.9,1,4.1,1.6c1.2,0.7,2.3,1.4,3.2,2.2c0.9,0.8,1.6,1.7,2.1,2.7s0.7,2,0.7,3
					c0,1.4-0.5,2.8-1.4,4.1c-0.9,1.3-2.2,2.4-3.7,3.3c-1.5,0.9-3.4,1.7-5.5,2.2c-2.1,0.6-4.4,0.8-6.7,0.8h-16.4
					c-0.2,0-0.5-0.1-0.6-0.2c-0.2-0.1-0.3-0.3-0.3-0.4v-30.3c0-0.4,0.3-0.6,0.9-0.6L247.2,285L247.2,285z M242.9,295.7h4.3
					c1.2,0,2.2-0.3,3.1-0.8c0.9-0.5,1.3-1.2,1.3-2c0-0.9-0.4-1.7-1.3-2.2s-1.9-0.8-3.1-0.8h-4.3V295.7z M251.5,311.5
					c1.2,0,2.3-0.1,3.3-0.4c1.1-0.3,2-0.6,2.8-1.1s1.4-1,1.8-1.7c0.5-0.6,0.7-1.4,0.7-2.3c0-0.8-0.2-1.5-0.7-2.2s-1.1-1.2-1.9-1.6
					c-0.8-0.5-1.7-0.8-2.8-1.1c-1.1-0.3-2.2-0.4-3.3-0.4h-8.6v10.9L251.5,311.5L251.5,311.5z"/>
				<path class="st0" d="M276.7,316.5c-0.7,0-1-0.2-1-0.6v-30.3c0-0.4,0.3-0.6,1-0.6h6.6c0.7,0,1,0.2,1,0.6v30.3
					c0,0.4-0.3,0.6-1,0.6H276.7z"/>
				<path class="st0" d="M320.9,285.7c0.2,0,0.5,0.1,0.6,0.3c0.2,0.1,0.3,0.3,0.3,0.4v3.8c0,0.4-0.3,0.5-1,0.5
					c-0.5-0.1-1.1-0.1-1.6-0.1c-0.6,0-1.1-0.1-1.7-0.1c-2.4,0-4.7,0.3-6.8,0.8c-2.1,0.6-3.9,1.3-5.5,2.2s-2.8,2-3.7,3.3
					s-1.3,2.8-1.3,4.6c0,1.7,0.5,3.1,1.3,4.4c0.9,1.3,2.1,2.4,3.7,3.3c1.6,1,3.4,1.7,5.5,2.2c2.1,0.5,4.3,0.8,6.8,0.8v-10.4h-3.8
					c-0.2,0-0.5-0.1-0.7-0.2s-0.3-0.2-0.3-0.4v-3.7c0-0.1,0.1-0.3,0.3-0.4s0.5-0.2,0.7-0.2h11.4c0.3,0,0.5,0.1,0.7,0.2
					c0.2,0.1,0.3,0.3,0.3,0.4v19c0,0.4-0.3,0.6-1,0.6h-7.6c-3.6,0-7-0.4-10.1-1.2s-5.9-1.9-8.2-3.4c-2.4-1.4-4.2-3.1-5.6-5
					c-1.4-1.9-2-4-2-6.1c0-2.3,0.7-4.4,2-6.3c1.4-1.9,3.2-3.6,5.6-5s5.1-2.5,8.2-3.4s6.5-1.2,10.1-1.2c0.5,0,1.1,0,1.7,0
					C319.8,285.6,320.4,285.7,320.9,285.7z"/>
			</g>
		</g>
	</g>
</g>
<g>
	<g>
		<path d="M253.1,331.2h6.8c1,0,1.9,0.2,2.8,0.6s1.7,0.9,2.3,1.6c0.7,0.7,1.2,1.4,1.6,2.3c0.4,0.9,0.6,1.8,0.6,2.8
			c0,1-0.2,1.9-0.6,2.8c-0.4,0.9-0.9,1.7-1.6,2.3c-0.7,0.7-1.4,1.2-2.3,1.6c-0.9,0.4-1.8,0.6-2.8,0.6h-3.6v6.8c0,0.1,0,0.2-0.1,0.3
			c-0.1,0.1-0.2,0.1-0.3,0.1h-2.8c-0.1,0-0.2,0-0.3-0.1c-0.1-0.1-0.1-0.2-0.1-0.3v-20.9C252.6,331.3,252.8,331.2,253.1,331.2z
			 M259.9,334.6h-3.6v7.7h3.6c0.5,0,1-0.1,1.4-0.3c0.4-0.2,0.8-0.5,1.1-0.8c0.3-0.3,0.6-0.7,0.8-1.2c0.2-0.4,0.3-1,0.3-1.6
			c0-0.7-0.1-1.2-0.3-1.6c-0.2-0.4-0.5-0.8-0.8-1.1c-0.3-0.3-0.7-0.6-1.1-0.8C260.9,334.7,260.4,334.6,259.9,334.6z"/>
		<path d="M276.8,331.2c1,0,1.9,0.2,2.8,0.6c0.9,0.4,1.7,0.9,2.3,1.6c0.7,0.7,1.2,1.4,1.6,2.3c0.4,0.9,0.6,1.8,0.6,2.8
			c0,1.4-0.4,2.6-1.1,3.7c-0.7,1.1-1.7,2-2.8,2.6l3.7,7.9c0.1,0.2,0,0.4-0.2,0.4h-2.9c-0.1,0-0.2,0-0.3-0.1
			c-0.1-0.1-0.2-0.2-0.2-0.3l-4.6-9.9c-0.1-0.2,0-0.4,0.2-0.4h1c0.5,0,1-0.1,1.4-0.3c0.4-0.2,0.8-0.5,1.2-0.8
			c0.3-0.3,0.6-0.7,0.8-1.2c0.2-0.4,0.3-1,0.3-1.6c0-0.6-0.1-1.2-0.3-1.6c-0.2-0.4-0.5-0.8-0.8-1.1c-0.3-0.3-0.7-0.6-1.2-0.8
			c-0.4-0.2-0.9-0.3-1.4-0.3h-3.6v17.9c0,0.1,0,0.2-0.1,0.3c-0.1,0.1-0.2,0.1-0.3,0.1H270c-0.3,0-0.4-0.1-0.4-0.4v-20.9
			c0-0.3,0.1-0.4,0.4-0.4H276.8z"/>
		<path d="M293.5,331.1c1.1,0,2.1,0.3,3,0.9c0.9,0.6,1.7,1.4,2.3,2.4s1.2,2.2,1.5,3.5c0.4,1.3,0.5,2.8,0.5,4.3
			c0,1.5-0.2,2.9-0.5,4.3c-0.4,1.3-0.9,2.5-1.5,3.5s-1.4,1.8-2.3,2.4c-0.9,0.6-1.9,0.9-3,0.9c-1.1,0-2.1-0.3-3-0.9
			c-0.9-0.6-1.7-1.4-2.3-2.4c-0.7-1-1.2-2.2-1.5-3.5c-0.4-1.3-0.5-2.8-0.5-4.3c0-1.5,0.2-2.9,0.5-4.3c0.4-1.3,0.9-2.5,1.5-3.5
			c0.6-1,1.4-1.8,2.3-2.4C291.4,331.3,292.4,331.1,293.5,331.1z M293.5,348.1c0.6,0,1.2-0.2,1.6-0.5c0.5-0.3,0.9-0.8,1.2-1.3
			s0.6-1.2,0.7-1.9c0.2-0.7,0.3-1.5,0.3-2.3c0-0.8-0.1-1.5-0.3-2.3c-0.2-0.7-0.4-1.4-0.8-1.9c-0.3-0.6-0.7-1-1.2-1.3
			c-0.5-0.3-1-0.5-1.6-0.5c-0.6,0-1.1,0.2-1.6,0.5c-0.5,0.3-0.9,0.8-1.2,1.3c-0.3,0.6-0.6,1.2-0.8,1.9c-0.2,0.7-0.3,1.5-0.3,2.3
			c0,0.8,0.1,1.5,0.3,2.3c0.2,0.7,0.4,1.4,0.8,1.9c0.3,0.5,0.7,1,1.2,1.3C292.4,347.9,292.9,348.1,293.5,348.1z"/>
		<path d="M307.4,331.2c1.5,0,2.9,0.3,4.2,0.9c1.3,0.6,2.5,1.3,3.5,2.3c1,1,1.8,2.1,2.3,3.5c0.6,1.3,0.9,2.7,0.9,4.2
			s-0.3,2.9-0.9,4.2c-0.6,1.3-1.3,2.5-2.3,3.5c-1,1-2.1,1.8-3.5,2.3c-1.3,0.6-2.7,0.9-4.2,0.9h-3.2c-0.1,0-0.2,0-0.3-0.1
			c-0.1-0.1-0.1-0.2-0.1-0.3v-20.9c0-0.3,0.1-0.4,0.4-0.4H307.4z M307.4,349.6c1,0,1.9-0.2,2.8-0.6c0.9-0.4,1.7-0.9,2.3-1.6
			c0.7-0.7,1.2-1.4,1.6-2.3s0.6-1.9,0.6-3c0-1.1-0.2-2.1-0.6-3s-0.9-1.7-1.6-2.3c-0.7-0.7-1.4-1.2-2.3-1.6c-0.9-0.4-1.8-0.6-2.8-0.6
			V349.6z"/>
		<path d="M324.3,331.2c0.3,0,0.4,0.1,0.4,0.4v15.3c0,0.8,0.3,1.4,0.8,2c0.5,0.5,1.2,0.8,2,0.8c0.8,0,1.4-0.3,1.9-0.8
			c0.5-0.5,0.8-1.2,0.8-2v-15.3c0-0.3,0.1-0.4,0.4-0.4h2.8c0.3,0,0.4,0.1,0.4,0.4v15.1c0,0.9-0.2,1.7-0.5,2.5
			c-0.3,0.8-0.8,1.4-1.4,2c-0.6,0.6-1.2,1-2,1.4c-0.8,0.3-1.6,0.5-2.5,0.5c-0.9,0-1.7-0.2-2.5-0.5c-0.8-0.3-1.4-0.8-2-1.4
			c-0.6-0.6-1-1.3-1.4-2c-0.3-0.8-0.5-1.6-0.5-2.5v-15.1c0-0.1,0-0.2,0.1-0.3c0.1-0.1,0.2-0.1,0.3-0.1H324.3z"/>
		<path d="M349,331.2c0.3,0,0.4,0.2,0.4,0.5v2.7c0,0.1,0,0.2-0.1,0.3c-0.1,0.1-0.2,0.1-0.3,0c-0.2-0.1-0.5-0.1-0.7-0.2
			c-0.2,0-0.5,0-0.7,0c-1,0-1.9,0.2-2.8,0.6c-0.9,0.4-1.6,0.9-2.3,1.6c-0.7,0.7-1.2,1.4-1.6,2.3c-0.4,0.9-0.6,1.9-0.6,3.2
			s0.2,2.3,0.6,3.2c0.4,0.9,0.9,1.7,1.6,2.3c0.7,0.6,1.4,1.2,2.3,1.6c0.9,0.4,1.8,0.6,2.8,0.6c0.4,0,0.9-0.1,1.4-0.2
			c0.3-0.1,0.4,0,0.4,0.3v2.7c0,0.1,0,0.2-0.1,0.3c-0.1,0.1-0.2,0.2-0.3,0.2c-0.2,0-0.5,0-0.7,0.1c-0.2,0-0.5,0-0.7,0
			c-1.5,0-2.9-0.3-4.2-0.9c-1.3-0.6-2.5-1.3-3.4-2.3c-1-1-1.7-2.1-2.3-3.5c-0.6-1.3-0.9-2.8-0.9-4.4s0.3-3,0.9-4.4
			c0.6-1.3,1.3-2.5,2.3-3.5c1-1,2.1-1.8,3.4-2.3c1.3-0.6,2.7-0.9,4.2-0.9C348,331.1,348.5,331.1,349,331.2z"/>
		<path d="M351.5,331.2h10.1c0.3,0,0.4,0.1,0.4,0.4v2.6c0,0.3-0.1,0.4-0.4,0.4h-3.2v17.9c0,0.1,0,0.2-0.1,0.3s-0.2,0.1-0.3,0.1h-2.8
			c-0.1,0-0.2,0-0.3-0.1c-0.1-0.1-0.1-0.2-0.1-0.3v-17.9h-3.2c-0.3,0-0.4-0.1-0.4-0.4v-2.6C351.2,331.3,351.3,331.2,351.5,331.2z"/>
		<path d="M365,353c-0.3,0-0.4-0.1-0.4-0.4v-20.9c0-0.3,0.1-0.4,0.4-0.4h2.8c0.3,0,0.4,0.1,0.4,0.4v20.9c0,0.3-0.1,0.4-0.4,0.4H365z
			"/>
		<path d="M378.6,331.1c1.1,0,2.1,0.3,3,0.9c0.9,0.6,1.7,1.4,2.3,2.3c0.6,1,1.2,2.2,1.5,3.5c0.4,1.3,0.5,2.8,0.5,4.3
			s-0.2,2.9-0.5,4.3c-0.4,1.3-0.9,2.5-1.5,3.5c-0.7,1-1.4,1.8-2.3,2.3c-0.9,0.6-1.9,0.9-3,0.9c-1.1,0-2.1-0.3-3-0.9
			c-0.9-0.6-1.7-1.4-2.3-2.3c-0.6-1-1.2-2.2-1.5-3.5c-0.4-1.3-0.5-2.8-0.5-4.3s0.2-2.9,0.5-4.3c0.4-1.3,0.9-2.5,1.5-3.5
			c0.7-1,1.4-1.8,2.3-2.3C376.5,331.3,377.5,331.1,378.6,331.1z M378.6,349.6c0.6,0,1.2-0.2,1.6-0.6c0.5-0.4,0.9-1,1.2-1.7
			s0.6-1.5,0.7-2.4c0.2-0.9,0.3-1.9,0.3-2.8c0-1-0.1-1.9-0.3-2.8c-0.2-0.9-0.4-1.7-0.8-2.4c-0.3-0.7-0.7-1.3-1.2-1.7
			c-0.5-0.4-1-0.6-1.6-0.6c-0.6,0-1.1,0.2-1.6,0.6c-0.5,0.4-0.9,1-1.2,1.7c-0.3,0.7-0.6,1.5-0.8,2.4s-0.3,1.9-0.3,2.8
			c0,1,0.1,1.9,0.3,2.8c0.2,0.9,0.4,1.7,0.8,2.4c0.3,0.7,0.7,1.2,1.2,1.7C377.5,349.3,378,349.6,378.6,349.6z"/>
		<path d="M389.3,331.2h2.8c0.2,0,0.5,0.1,0.7,0.3l5.2,5.6v-5.5c0-0.3,0.1-0.4,0.4-0.4h2.8c0.3,0,0.4,0.1,0.4,0.4v20.9
			c0,0.3-0.1,0.4-0.4,0.4h-2.8c-0.3,0-0.4-0.1-0.4-0.4v-10.5l-5.5-5.9v16.4c0,0.3-0.1,0.4-0.4,0.4h-2.8c-0.3,0-0.4-0.1-0.4-0.4
			v-20.9C388.9,331.4,389,331.2,389.3,331.2z"/>
		<path d="M404.4,353.1c-0.1,0-0.2,0-0.3-0.1s-0.1-0.2-0.1-0.3v-2.6c0-0.2,0.1-0.4,0.4-0.4c0.4-0.1,0.9-0.2,1.2-0.4
			c0.4-0.2,0.7-0.5,1-0.8c0.3-0.3,0.5-0.7,0.7-1.1c0.2-0.4,0.2-0.9,0.2-1.3v-7.7c0-1,0.2-1.9,0.5-2.7c0.4-0.9,0.8-1.6,1.4-2.3
			c0.6-0.6,1.3-1.2,2.2-1.6c0.8-0.4,1.7-0.6,2.7-0.7c0.3,0,0.4,0.1,0.4,0.4v2.6c0,0.1,0,0.2-0.1,0.3s-0.2,0.1-0.3,0.1
			c-0.9,0.1-1.7,0.5-2.3,1.2c-0.6,0.7-0.9,1.5-0.9,2.5v7.7c0,1-0.2,1.9-0.5,2.7c-0.4,0.9-0.8,1.6-1.4,2.3c-0.6,0.7-1.3,1.2-2.2,1.6
			C406.2,352.8,405.4,353,404.4,353.1z"/>
	</g>
	<g>
		<g>
			<path class="st0" d="M251.1,329.2h6.8c1,0,1.9,0.2,2.8,0.6s1.7,0.9,2.3,1.6c0.7,0.7,1.2,1.4,1.6,2.3c0.4,0.9,0.6,1.8,0.6,2.8
				c0,1-0.2,1.9-0.6,2.8c-0.4,0.9-0.9,1.7-1.6,2.3c-0.7,0.7-1.4,1.2-2.3,1.6c-0.9,0.4-1.8,0.6-2.8,0.6h-3.6v6.8c0,0.1,0,0.2-0.1,0.3
				c-0.1,0.1-0.2,0.1-0.3,0.1h-2.8c-0.1,0-0.2,0-0.3-0.1c-0.1-0.1-0.1-0.2-0.1-0.3v-20.9C250.6,329.3,250.8,329.2,251.1,329.2z
				 M257.9,332.6h-3.6v7.7h3.6c0.5,0,1-0.1,1.4-0.3c0.4-0.2,0.8-0.5,1.1-0.8c0.3-0.3,0.6-0.7,0.8-1.2c0.2-0.4,0.3-1,0.3-1.6
				c0-0.7-0.1-1.2-0.3-1.6c-0.2-0.4-0.5-0.8-0.8-1.1c-0.3-0.3-0.7-0.6-1.1-0.8C258.9,332.7,258.4,332.6,257.9,332.6z"/>
			<path class="st0" d="M274.8,329.2c1,0,1.9,0.2,2.8,0.6c0.9,0.4,1.7,0.9,2.3,1.6c0.7,0.7,1.2,1.4,1.6,2.3c0.4,0.9,0.6,1.8,0.6,2.8
				c0,1.4-0.4,2.6-1.1,3.7c-0.7,1.1-1.7,2-2.8,2.6l3.7,7.9c0.1,0.2,0,0.4-0.2,0.4h-2.9c-0.1,0-0.2,0-0.3-0.1
				c-0.1-0.1-0.2-0.2-0.2-0.3l-4.6-9.9c-0.1-0.2,0-0.4,0.2-0.4h1c0.5,0,1-0.1,1.4-0.3c0.4-0.2,0.8-0.5,1.2-0.8
				c0.3-0.3,0.6-0.7,0.8-1.2c0.2-0.4,0.3-1,0.3-1.6c0-0.6-0.1-1.2-0.3-1.6c-0.2-0.4-0.5-0.8-0.8-1.1c-0.3-0.3-0.7-0.6-1.2-0.8
				c-0.4-0.2-0.9-0.3-1.4-0.3h-3.6v17.9c0,0.1,0,0.2-0.1,0.3c-0.1,0.1-0.2,0.1-0.3,0.1H268c-0.3,0-0.4-0.1-0.4-0.4v-20.9
				c0-0.3,0.1-0.4,0.4-0.4H274.8z"/>
			<path class="st0" d="M291.5,329.1c1.1,0,2.1,0.3,3,0.9c0.9,0.6,1.7,1.4,2.3,2.4s1.2,2.2,1.5,3.5c0.4,1.3,0.5,2.8,0.5,4.3
				c0,1.5-0.2,2.9-0.5,4.3c-0.4,1.3-0.9,2.5-1.5,3.5s-1.4,1.8-2.3,2.4c-0.9,0.6-1.9,0.9-3,0.9c-1.1,0-2.1-0.3-3-0.9
				c-0.9-0.6-1.7-1.4-2.3-2.4c-0.7-1-1.2-2.2-1.5-3.5c-0.4-1.3-0.5-2.8-0.5-4.3c0-1.5,0.2-2.9,0.5-4.3c0.4-1.3,0.9-2.5,1.5-3.5
				c0.6-1,1.4-1.8,2.3-2.4C289.4,329.3,290.4,329.1,291.5,329.1z M291.5,346.1c0.6,0,1.2-0.2,1.6-0.5c0.5-0.3,0.9-0.8,1.2-1.3
				s0.6-1.2,0.7-1.9c0.2-0.7,0.3-1.5,0.3-2.3c0-0.8-0.1-1.5-0.3-2.3c-0.2-0.7-0.4-1.4-0.8-1.9c-0.3-0.6-0.7-1-1.2-1.3
				c-0.5-0.3-1-0.5-1.6-0.5c-0.6,0-1.1,0.2-1.6,0.5c-0.5,0.3-0.9,0.8-1.2,1.3c-0.3,0.6-0.6,1.2-0.8,1.9c-0.2,0.7-0.3,1.5-0.3,2.3
				c0,0.8,0.1,1.5,0.3,2.3c0.2,0.7,0.4,1.4,0.8,1.9c0.3,0.5,0.7,1,1.2,1.3C290.4,345.9,290.9,346.1,291.5,346.1z"/>
			<path class="st0" d="M305.4,329.2c1.5,0,2.9,0.3,4.2,0.9c1.3,0.6,2.5,1.3,3.5,2.3c1,1,1.8,2.1,2.3,3.5c0.6,1.3,0.9,2.7,0.9,4.2
				s-0.3,2.9-0.9,4.2c-0.6,1.3-1.3,2.5-2.3,3.5c-1,1-2.1,1.8-3.5,2.3c-1.3,0.6-2.7,0.9-4.2,0.9h-3.2c-0.1,0-0.2,0-0.3-0.1
				c-0.1-0.1-0.1-0.2-0.1-0.3v-20.9c0-0.3,0.1-0.4,0.4-0.4H305.4z M305.4,347.6c1,0,1.9-0.2,2.8-0.6c0.9-0.4,1.7-0.9,2.3-1.6
				c0.7-0.7,1.2-1.4,1.6-2.3s0.6-1.9,0.6-3c0-1.1-0.2-2.1-0.6-3s-0.9-1.7-1.6-2.3c-0.7-0.7-1.4-1.2-2.3-1.6
				c-0.9-0.4-1.8-0.6-2.8-0.6V347.6z"/>
			<path class="st0" d="M322.3,329.2c0.3,0,0.4,0.1,0.4,0.4v15.3c0,0.8,0.3,1.4,0.8,2c0.5,0.5,1.2,0.8,2,0.8c0.8,0,1.4-0.3,1.9-0.8
				c0.5-0.5,0.8-1.2,0.8-2v-15.3c0-0.3,0.1-0.4,0.4-0.4h2.8c0.3,0,0.4,0.1,0.4,0.4v15.1c0,0.9-0.2,1.7-0.5,2.5
				c-0.3,0.8-0.8,1.4-1.4,2c-0.6,0.6-1.2,1-2,1.4c-0.8,0.3-1.6,0.5-2.5,0.5c-0.9,0-1.7-0.2-2.5-0.5c-0.8-0.3-1.4-0.8-2-1.4
				c-0.6-0.6-1-1.3-1.4-2c-0.3-0.8-0.5-1.6-0.5-2.5v-15.1c0-0.1,0-0.2,0.1-0.3c0.1-0.1,0.2-0.1,0.3-0.1H322.3z"/>
			<path class="st0" d="M347,329.2c0.3,0,0.4,0.2,0.4,0.5v2.7c0,0.1,0,0.2-0.1,0.3c-0.1,0.1-0.2,0.1-0.3,0c-0.2-0.1-0.5-0.1-0.7-0.2
				c-0.2,0-0.5,0-0.7,0c-1,0-1.9,0.2-2.8,0.6c-0.9,0.4-1.6,0.9-2.3,1.6c-0.7,0.7-1.2,1.4-1.6,2.3c-0.4,0.9-0.6,1.9-0.6,3.2
				s0.2,2.3,0.6,3.2c0.4,0.9,0.9,1.7,1.6,2.3c0.7,0.6,1.4,1.2,2.3,1.6c0.9,0.4,1.8,0.6,2.8,0.6c0.4,0,0.9-0.1,1.4-0.2
				c0.3-0.1,0.4,0,0.4,0.3v2.7c0,0.1,0,0.2-0.1,0.3c-0.1,0.1-0.2,0.2-0.3,0.2c-0.2,0-0.5,0-0.7,0.1c-0.2,0-0.5,0-0.7,0
				c-1.5,0-2.9-0.3-4.2-0.9c-1.3-0.6-2.5-1.3-3.4-2.3c-1-1-1.7-2.1-2.3-3.5c-0.6-1.3-0.9-2.8-0.9-4.4s0.3-3,0.9-4.4
				c0.6-1.3,1.3-2.5,2.3-3.5c1-1,2.1-1.8,3.4-2.3c1.3-0.6,2.7-0.9,4.2-0.9C346,329.1,346.5,329.1,347,329.2z"/>
			<path class="st0" d="M349.5,329.2h10.1c0.3,0,0.4,0.1,0.4,0.4v2.6c0,0.3-0.1,0.4-0.4,0.4h-3.2v17.9c0,0.1,0,0.2-0.1,0.3
				s-0.2,0.1-0.3,0.1h-2.8c-0.1,0-0.2,0-0.3-0.1c-0.1-0.1-0.1-0.2-0.1-0.3v-17.9h-3.2c-0.3,0-0.4-0.1-0.4-0.4v-2.6
				C349.2,329.3,349.3,329.2,349.5,329.2z"/>
			<path class="st0" d="M363,351c-0.3,0-0.4-0.1-0.4-0.4v-20.9c0-0.3,0.1-0.4,0.4-0.4h2.8c0.3,0,0.4,0.1,0.4,0.4v20.9
				c0,0.3-0.1,0.4-0.4,0.4H363z"/>
			<path class="st0" d="M376.6,329.1c1.1,0,2.1,0.3,3,0.9c0.9,0.6,1.7,1.4,2.3,2.3c0.6,1,1.2,2.2,1.5,3.5c0.4,1.3,0.5,2.8,0.5,4.3
				s-0.2,2.9-0.5,4.3c-0.4,1.3-0.9,2.5-1.5,3.5c-0.7,1-1.4,1.8-2.3,2.3c-0.9,0.6-1.9,0.9-3,0.9c-1.1,0-2.1-0.3-3-0.9
				c-0.9-0.6-1.7-1.4-2.3-2.3c-0.6-1-1.2-2.2-1.5-3.5c-0.4-1.3-0.5-2.8-0.5-4.3s0.2-2.9,0.5-4.3c0.4-1.3,0.9-2.5,1.5-3.5
				c0.7-1,1.4-1.8,2.3-2.3C374.5,329.3,375.5,329.1,376.6,329.1z M376.6,347.6c0.6,0,1.2-0.2,1.6-0.6c0.5-0.4,0.9-1,1.2-1.7
				s0.6-1.5,0.7-2.4c0.2-0.9,0.3-1.9,0.3-2.8c0-1-0.1-1.9-0.3-2.8c-0.2-0.9-0.4-1.7-0.8-2.4c-0.3-0.7-0.7-1.3-1.2-1.7
				c-0.5-0.4-1-0.6-1.6-0.6c-0.6,0-1.1,0.2-1.6,0.6c-0.5,0.4-0.9,1-1.2,1.7c-0.3,0.7-0.6,1.5-0.8,2.4s-0.3,1.9-0.3,2.8
				c0,1,0.1,1.9,0.3,2.8c0.2,0.9,0.4,1.7,0.8,2.4c0.3,0.7,0.7,1.2,1.2,1.7C375.5,347.3,376,347.6,376.6,347.6z"/>
			<path class="st0" d="M387.3,329.2h2.8c0.2,0,0.5,0.1,0.7,0.3l5.2,5.6v-5.5c0-0.3,0.1-0.4,0.4-0.4h2.8c0.3,0,0.4,0.1,0.4,0.4v20.9
				c0,0.3-0.1,0.4-0.4,0.4h-2.8c-0.3,0-0.4-0.1-0.4-0.4v-10.5l-5.5-5.9v16.4c0,0.3-0.1,0.4-0.4,0.4h-2.8c-0.3,0-0.4-0.1-0.4-0.4
				v-20.9C386.9,329.4,387,329.2,387.3,329.2z"/>
			<path class="st0" d="M402.4,351.1c-0.1,0-0.2,0-0.3-0.1s-0.1-0.2-0.1-0.3v-2.6c0-0.2,0.1-0.4,0.4-0.4c0.4-0.1,0.9-0.2,1.2-0.4
				c0.4-0.2,0.7-0.5,1-0.8c0.3-0.3,0.5-0.7,0.7-1.1c0.2-0.4,0.2-0.9,0.2-1.3v-7.7c0-1,0.2-1.9,0.5-2.7c0.4-0.9,0.8-1.6,1.4-2.3
				c0.6-0.6,1.3-1.2,2.2-1.6c0.8-0.4,1.7-0.6,2.7-0.7c0.3,0,0.4,0.1,0.4,0.4v2.6c0,0.1,0,0.2-0.1,0.3s-0.2,0.1-0.3,0.1
				c-0.9,0.1-1.7,0.5-2.3,1.2c-0.6,0.7-0.9,1.5-0.9,2.5v7.7c0,1-0.2,1.9-0.5,2.7c-0.4,0.9-0.8,1.6-1.4,2.3c-0.6,0.7-1.3,1.2-2.2,1.6
				C404.2,350.8,403.4,351,402.4,351.1z"/>
		</g>
	</g>
</g>
</svg>
