<svg xmlns="http://www.w3.org/2000/svg" viewBox="0 0 790.77 964.49"><defs><style>.cls-1{fill:#fff;}</style></defs><title>logo</title><g id="Layer_2" data-name="Layer 2"><g id="Layer_1-2" data-name="Layer 1"><path class="cls-1" d="M191.12,431c-4.68-21.47-17.43-34.61-33.33-43.38-7.31-4-14.93-7.22-22.49-10.53-10.52-4.61-18-13.24-22.71-25.51S110,326.36,117.73,317c9.12-11,22.12-8,26,6,2.85,10.35.32,20.45-6.89,26.83-2.15,1.91-4.55,3.38-7.07,5.21,1,.46,1.71.86,2.49,1.17C146.51,362,160.86,367.47,175,373.7c4,1.75,6.11,1,7.33-3.44,3.06-11.24,7.27-22.34,8.55-33.91,2.74-24.85-2.12-47.29-19.41-63.1-16-14.59-34.32-18.76-53.42-14-28.47,7-49.64,26.34-59.57,60.86-4.89,17-4.71,35,2.71,50.89s19.17,25.72,34,30.39c9.31,2.93,18.36,7.52,27.16,12.38C130,418,134.87,426,137.7,435.63c4.3,14.6-2.14,27.51-14.24,28.61-13.24,1.22-23.76-6.86-34.1-15.51-6.49-5.43-8-13.79-9.22-22.4a6.52,6.52,0,0,0-.77-1.65c-26.87,11-49.11-2.8-70.8-20C16.12,417.79,20,432.28,21.2,447.9c1.08,13.75,6.18,25,13.75,34.84a76.49,76.49,0,0,0,29.79,23.38c21.34,9.6,43.28,9.55,65.41,5.68,15.86-2.77,30.57-9.17,43.21-21.5C189,475,196.46,455.5,191.12,431Z"/><path class="cls-1" d="M334.74,415.94c-2.41,1.43-4.05,2.43-5.7,3.38-16.58,9.5-33.64,16.41-52.29,14-6.9-.89-13.51-3.1-19.13-8.67,44.21-34.77,72.62-85.77,100.5-137.46a5.15,5.15,0,0,0-2.87,1.11c-19.18,13-39.68,19.55-61.58,18.92-3.71-.11-5.2,1.45-6.39,5.54-4,13.76-10,26.11-19.17,35.63-3.21,3.31-7,5.79-11.65,9.58,3-34,11-63.71,26.16-92.4-22,11.87-43.6,17-66.34,15.64-1.79,90.54-18.43,176.9-39.91,261.08l59.15-8V491.63c29,10.59,56.85,22.19,86.56,24C323,481.31,323.43,448,334.74,415.94Z"/><path class="cls-1" d="M415.86,307.93l-54.67,11.39c-2.42,76.86-14.49,151.83-46.66,220.26l24.18,17.61c1.63-5.19,3.07-9.76,4.35-13.82,4.95-.28,9.43-.58,13.91-.77,2.7-.11,4.07-1.49,4.82-4.91,1.61-7.33,3.56-14.56,5.7-21.69.48-1.63,2.17-3.68,3.44-3.84,14-1.81,28.05-2.71,41.95-5.11,5.49-.95,6.74,1.35,8.05,6.81,4.63,19.27,9.62,38.4,14.59,58.08,23.78-3.23,46.62-10,69.81-18.14C466.39,476,434.62,395.26,415.86,307.93Zm-37,148.66c2.5-17.74,4.9-34.79,7.31-51.84l1.18-.18,16.64,52Z"/><path class="cls-1" d="M590.73,892.56c-11.47-39-9.21-78,.79-116.84,4.91-19.09,5.65-19.62,22.14-19.75,4.07,0,8.14,0,12.65,0-6.41-24.23-7-48.47-7.94-74.07-22.14,31.63-48.63,52.8-79.71,64.74C540.55,750,542.25,753,544,756l-.88.78a4.2,4.2,0,0,1-1.25-.72c-16.45-18.72-41.33-14.83-56.93,1.62-14.39,15.19-16.49,37.46-5.18,56.25,5.48,9.1,10.61,18.54,16.35,27.38,8.12,12.5,8.42,23,.91,38.65-3.46,7.23-10.47,11-17.2,9.6s-11.46-8.49-9.9-16.85a52.36,52.36,0,0,1,5.46-15c2.52-4.67,6.09-8.49,9.49-13.06l-24.33-21.83c-13.27,16.62-18.86,36-16.52,58.4,2.2,21,11.09,36.5,27.84,43.55,19.29,8.11,42.28-1.08,53.87-20.88,11.84-20.24,11.69-50.69-.31-70.69a61.55,61.55,0,0,0-24-22.62c-6.19-3.4-9.63-9.38-9.07-14.78.61-6,6.09-13.56,11.89-14.09,3.78-.35,8.68,1,11.4,3.92,4.39,4.76,7.6,11.3,10.92,17.4,1.87,3.41,3,7.45,4.58,11.66,4.61-16.16,9-31.72,13.48-47.28,3.78,11.82,1.85,23.25.33,33.49l31.61-30.51c.44.54.89,1.07,1.33,1.6-7.53,58.28-17.2,115.56-50.54,161.09l85,3.77c-1.24-1.95-2.33-3.71-3.46-5.43A143.79,143.79,0,0,1,590.73,892.56Z"/><path class="cls-1" d="M393.61,716.88l-31.86,2.45c-1.52,14.9-3,29.29-4.48,43.82l-15.42-2.8c1.65-15,3.22-29.37,4.73-43.13l-31-3.24c-2,31.27-5.08,62.55-20.54,89.9,6.58,2.79,12.81,5.17,18.86,8.12,3.12,1.53,5.25.65,6.9-2.45,3.19-6,6.09-12.27,9.38-18.2.83-1.5,2.85-3.28,4-3,5.85,1.45,11.6,3.55,17.5,5.46a40.86,40.86,0,0,1-.22,4.27c-4.48,26.81-11.58,52.23-24.88,74.69C313.43,895,296.68,906.31,273.34,901c4.72,21.58-2.67,36.76-16.38,49,16-2.45,31.5-5.13,47-8.56,21.32-4.73,37.75-18.21,47.75-42.4,2.65-6.41,5.38-12.79,7.79-19.34C374,840.3,383.07,799,388.6,756.36,390.3,743.28,391.92,730.19,393.61,716.88Z"/><path class="cls-1" d="M403.23,834.83c10.93,2.41,18.91,11,26.69,19.8,2.88,3.25,5.31,7.1,8.06,10.82,5.06-16.76,9.76-32.3,14.6-48.29-14.48-11-31.1-15.77-48-21.37,2.82-9.14,5.51-17.88,8.38-27.22,21.62,9.16,39.37,25.46,57,40.49-1.77-26-3.54-52-5.34-78.41a270.19,270.19,0,0,0-69.92,1c-2.31,60.4-14.24,118.08-26.45,176.23,22.26-.75,43,1.88,58.64,22.79,3.53-17.11,7-33.74,10.51-50.89-14.44-8.55-29.8-6.4-45.3-5.24,1.29-11.62,2.46-22.42,3.71-33.2C396.68,834,397.24,833.5,403.23,834.83Z"/><path class="cls-1" d="M290,883.14c15.63-5.93,32.38-38,31.9-60.16l-32.46-6.61c-.64,3.52-1.19,8.44-2.48,13.06a59.39,59.39,0,0,1-5.11,13.27c-6.21,10.89-16.09,10.25-20.6-1.78a87.48,87.48,0,0,1-5-23c-1.54-18.43,1.31-35.75,11.85-50,10.79-14.55,18.24-16.09,31.52-7.5q.92-18.21,1.88-37.28c-14.38-3-27,2.17-38.49,13.35-27.5,26.82-34.85,84.89-18.67,122.55C252.58,878.07,274.14,889.18,290,883.14Z"/><path class="cls-1" d="M137.92,774c-1.17-13-3.84-25.47-9.78-36.58-9.68-18.09-24.9-25.69-42.2-21.37C72.84,719.36,62.31,728,52.51,738.7,22.41,771.46,5,811.52,5,865.29c.18,14.09,1.37,31.49,7.71,47.65,7,17.82,18.69,26.85,34.75,27.38,17.66.59,32.2-8.88,45-22.47C128.2,879.89,143.09,831.66,137.92,774Zm-46.17,30.6c-.81,19.19-5.81,36.68-16.32,51.25-5.74,8-13,11.06-18.23,7.53-6.72-4.53-6.59-13.09-7-21.67,1.31-17.67,5.53-34.58,15-49,4.38-6.63,9.71-11.77,17.33-9C88.19,785.9,92.19,794.34,91.75,804.64Z"/><path class="cls-1" d="M211.43,804.18l4.11-2.37c16.78-9.67,26.65-30.48,25.19-53.08-1.22-18.75-15.48-34.49-33.43-37.22-26.64-4-49.89,7.73-73.4,23.25,9.7,4.29,13.92,9.37,17.39,20.35a75.5,75.5,0,0,1,2.09,8.22c5.2,27.16,3.28,54-3,80.47-6.33,26.73-16.14,50.18-39.69,60-5.14,2.15-5.67,6.42-4.23,13.19A173.12,173.12,0,0,1,110,939.93c.6,8.12.13,16.36.13,24.56,11.56-.63,23.69-9.39,36-24.48,24.06-29.45,30.12-65.69,27-105.79,9.08,13.82,13.6,29.37,14.53,46.88,1,19-6,32.46-19.94,43.19,20.19-1,37.86,1.85,53.37,16.43,10.35-22,17.86-44.64,15.15-70C233.65,845.77,224.07,824.11,211.43,804.18Zm-5.62-41.92c-4.28,7.13-10.31,10.32-17.27,10.59-1.38.06-3.44-2.12-4.14-3.89-3.62-9.19-6.9-18.59-10.56-28.63,9.61-.91,19-1.6,28,3.39C209.47,747.92,210.79,754,205.81,762.26Z"/><path class="cls-1" d="M775.81,895.7c-6.1-22.89-7.87-46.64-9-70.49-1.69-35-.61-70,2.13-104.9,1.91-24.36,4.29-48.67,6.76-72.95,1-9.63,2.78-19.13,4.17-28.42L733,626.55c-.28,4-.4,8.11-.88,12.17-2.85,24.21-5.84,48.41-8.59,72.64a10.39,10.39,0,0,0,1.67,6.1c4.75,7.25,8.09,15.27,8.35,24.61.56,20.07-7.81,35.14-18.64,48.79a18.36,18.36,0,0,0-3.41,7.69c-5.5,29.83-10.59,59.78-16.24,89.57-4.45,23.5-16.26,40.14-33.51,51.2-2.67,1.72-5.29,3.54-7.92,5.35-1,.69-1.94,1.49-2.33,1.79l66.8-6.22a32.29,32.29,0,0,0,.23-3.41c-.86-38.84,2.84-77.26,7.15-115.61.2-1.84,2.06-4.8,3.19-4.83,5.41-.14,10.84.54,16.37.94-1.88,35.81-1.62,70.17,4.83,104.11l40.7,2.9C782.59,915.13,779.3,908.79,775.81,895.7ZM744.88,787.07l-13.36-2.49c4.77-26.22,9.45-51.9,14.13-77.58H747C746.33,733.42,745.61,759.85,744.88,787.07Z"/><path class="cls-1" d="M607.69,904.12,652,910.23c-4.41-32.83-5.31-67.17-2.26-84.14l23.52,47.08,19.69-32.46-24-33.92c.3-.5.61-1,.92-1.5,11.82,1.31,22.61-3,32.72-9.73,15.14-10.08,25.07-25.28,27.44-46.66,2.41-21.74-12.46-40.08-28.51-35.51C688.9,717,677.39,723,665.9,729.62c-11,6.34-22,12.84-32.89,19.6-1.37.85-2.61,3.62-2.74,5.61A880.17,880.17,0,0,1,614,874.53C611.93,884.78,609.66,895,607.69,904.12Zm54-147.88c9.46-6.65,18.66-13.8,29.94-14.34,3.85-.18,8.71-1.5,10.51,4.42,1.92,6.33-2.11,9.65-5.8,12.74-11.42,9.56-23.92,15.27-37.77,16.22a13.8,13.8,0,0,1-2.49-.07c-.3,0-.57-.36-.9-.58C654.11,766.75,655.42,760.68,661.74,756.24Z"/><path class="cls-1" d="M591.81,147.83l-83.53-26.11c1.34,10.34,3.26,21.33,4.08,32.44a67.58,67.58,0,0,1-6.29,34.06c-4.51-15.74-8.79-30.15-12.71-44.71-1.06-4-2.54-4.85-5.74-4.54-10.18,1-20.38,1.91-30.58,2.14-6.93.15-13.87-.9-21.51-1.46l43.38-50.8L416.82,42.73c-3,17.38-11.28,31.05-20.53,43.91a235.14,235.14,0,0,1-30.12,34.59l-1.84-1.07c8.41-37.67,16.83-75.34,25.46-114-24.6,12.26-49.59,11.62-75.08,9.26-3.74,95.71-13.5,190.13-27.59,285,19.66-13,39.91-18.35,61-18.87-1.91-12.63-3.84-24.5-5.41-36.44-.36-2.72-.34-7,1-8.31,7.5-7.18,15.43-13.64,23.82-20.87,6.83,32.12,7.92,63-3.08,93.6L453,294.77c-1.57-50-13.22-93.71-52.28-120.06l27.44-28.8c3.4,7.13,7.21,13.47,9.64,20.54,8.61,25,16.42,50.36,25.23,75.22,3.54,10,3.11,17.31-4.66,23.22-3.21,2.44-3.79,5.95-3.36,10.54.74,7.89.75,15.88,1.06,23.64-13,3.52-25.78,2.68-37,6.88L441.86,356c.41-.33,1.41-1.06,2.35-1.88A599.65,599.65,0,0,0,512.3,284.9c28.51-34.37,53.68-71.9,71.8-116C587,161.85,589.4,154.46,591.81,147.83Z"/><path class="cls-1" d="M305.06,102.41c-3.68-29-17-44.95-40.83-44.82-13.93.08-25.64,8.44-37,17.45-1.47,1.17-2.9,2.42-4.34,3.63l-1.6-.68c.57-24.15,1.14-48.3,1.72-73C167.31,26,110.67,42,51.74,44.61c3.53,28.52-.2,55.33-8.56,82.79l67.69-11.89c0,2.23.12,3.66,0,5-1.26,12.44-2,25-4,37.3-5.48,34-15.11,66.42-26.43,97.49,12.38-1.64,24.79-4.67,37.17-4.52s25,3.44,37.66,5.39c-1-12-3.06-24.94-2.79-37.77.74-36.6,2.42-73.18,3.89-109.76.06-1.46,1.56-3.77,2.68-4.09,16.27-4.65,32.58-9,49.43-13.62a21,21,0,0,1-1.44,2.46c-21.88,26.73-35.14,58.81-39.09,96.46-1.67,15.91-1.25,31.76,5.05,46.38,5.68,13.15,14,22.55,26.36,25.18,20.2,4.31,38.15-2.56,54.15-17.63,18-16.93,30.49-39.21,39.66-64.32C302.12,155.06,308.53,129.7,305.06,102.41Zm-75.67,95.66c-4.69,4.26-10.37,5.51-15.55,1.41-4.77-3.78-5.3-10.33-4.48-16.59,2.24-17.27,8.87-31.7,19.86-42.84a23,23,0,0,1,7.95-5c9.4-3.71,15.11,1.6,15,16.88C249.76,168.75,242.87,185.82,229.39,198.07Z"/><path class="cls-1" d="M621.68,199.08c-9.71-10-21.27-8.83-32.37-3.65-21.68,10.12-41.73,46.55-41.73,75.24,0,2.26-.12,4.54,0,6.79.93,14.65,6.76,25.28,16.61,27.6,5.21,1.23,11.43,1.36,16.23-1,24.37-11.93,42.26-32.33,50.07-63.89C634.36,224.67,632.13,209.84,621.68,199.08Zm-35.17,66.31c-5.94,1.45-8.94-1.59-8.91-9,0-9,7.82-22.34,14.78-25.27,4.84-2,9.11,1.35,9.74,7.71C603.1,248.76,594.47,263.46,586.51,265.39Z"/><path class="cls-1" d="M718.34,468.82c-24.09,35.38-55.67,52.56-91.57,62.57,7.89,4.31,10.5,11.71,12.29,19.9,10.67,48.69,9.24,97.82,3.51,147.07-1.26,10.81-3.43,21.46-5.22,32.47,19.81-22.49,44.87-26.43,69.93-31.35-3-20.46-.55-40.46,3.43-61.7C699.38,650.88,687,659,673.54,665a10.83,10.83,0,0,1-.8-2.22c-.84-14-1.73-27.92-2.33-41.9-.06-1.43,1.38-3.89,2.5-4.3,5.58-2.06,11.22-4.39,17-5.1,7-.86,14.19-.2,21.07-.2,1.2-17,2.46-34.55,3.73-52.48l-48.58,22.69c-1.31-11-2.45-20.88-3.69-30.78-1.41-11.19-1.48-11.28,7.53-14.77,17.65-6.83,35.84-7.82,54.16-7.34,1.75,0,3.51,0,5.35,0C725.71,508.46,722.1,489,718.34,468.82Z"/><path class="cls-1" d="M598,528.14c-6.71-13.87-9.58-28.49-7.11-44.33,1.76-11.31,5.23-21.82,12.95-29.14,4.28-4.07,9.19-4.93,14.12-1.53,4.42,3,6.2,8.65,5.32,16-2.21,18.49-10.9,28.84-28,32.82L623.94,523c9.67-9.28,16.37-21.54,21.25-34.79,6.42-17.46,5.68-35.13-4.67-50.48-10.08-14.94-23.38-18.58-38.14-13.22-16.24,5.89-25.9,20.44-31.43,39.36-2.59,8.87-2.2,8.91-10,9.13-9.21.26-18.41.87-27.62,1.16-3.65.12-5.69,1.72-6.65,6.43-2.88,14.15-6.18,28.17-9.25,42.26-.8,3.65-1.39,7.38-2.1,11.18l10.57,1.85c-5,34.43-9.92,68.31-15,103.3a19.6,19.6,0,0,1-1.21-2.82C505,604.76,482,587.18,461,583.5c-14.46-2.54-29.4-1.1-44.13-1-7.26,0-14.51.92-22.66,1.48,5.74,4,10.67,7,15.25,10.66a37.71,37.71,0,0,1,13.45,20.12c5.73,21.21,6,42.86,3.42,64.69-1.08,9.19-2.77,18.28-4.06,26.62a75.71,75.71,0,0,1,9.31-.45c8,.53,16,2.25,24,1.9,18.57-.83,34-10,45.18-28.74,2.53-4.24,4.75-8.76,7.72-14.27-.94,10.6-1.59,20-2.75,29.23-.21,1.62-2.43,3.57-4,4.1-5.79,2-11.74,3.2-17.55,5.11a5.38,5.38,0,0,0-3,3.8c-.22,13.12-.14,26.24-.14,39.41,9.35-1.67,19.19-3.84,29.11-5.08,10.09-1.26,20.25-1.59,30.27-2.32.89-15,1.79-30.06,2.72-45.66l-17,1.23c0-2-.07-3.25,0-4.45,1.81-27.07,2.88-54.26,5.69-81.18,2.37-22.78,6.84-45.22,10.21-67.85.63-4.24,2.25-5.43,5.46-4.9s6.62.74,10.32,1.13c2.05-18.55,3.75-36.91,9.54-54.23-.79,18,4.45,33.4,11.68,48.48,10.63,22.2,20.06,45.13,21.46,71.66.66,12.63,1.12,25.17-3.57,36.9-3.6,9-11.07,13.14-18.4,10.63-8.48-2.9-13-11-12.25-21.75s4.36-19.67,10.93-25.18c-2.51-12.4-4.82-23.82-7.22-35.66-15.77,13.53-28.68,30.27-34.35,53.87a53.3,53.3,0,0,0-1.46,18.16c4.16,34.65,32.8,57.68,60.37,48.54,18-6,37.07-22.3,39.2-52.25,1.13-15.78-.14-31.06-6.31-45C618,569.94,608,549,598,528.14ZM454.17,666.5c3.34-21.2,2.6-42-4.39-62.08,14.14-.13,29.16,13.57,29.27,27.07C479.18,647.47,468.92,664.41,454.17,666.5Z"/><path class="cls-1" d="M192.45,580c-9.34-28.11-26.84-45.34-50-52.26-18.25-5.45-37.21-7.53-55.95-10.15C74.89,516,63.13,516.17,51,515.51,47.11,586.65,28.52,651.87,7.78,717.17c18.42-7,34.62,0,50.27,9.65,6-2.93,5.21-9.48,5.57-15.26,1.58-25.36,5.61-50,13.12-73.79,3.91-12.39,3.91-12.15,14.44-9.79,23,5.17,46.1,7.57,69.32,1.85,11.43-2.81,21.85-7.8,28.93-20.1A34.65,34.65,0,0,0,192.45,580Zm-81.31-7.24c1.36,9.94,2.81,20.55,4.27,31.17l-1.19.76L94.75,578.29,71.23,606.08l-1-.38,13.47-34.83-18.63-16.4c5,0,8.84-.07,12.7,0a24.8,24.8,0,0,1,6.5.65C90,556.83,93.8,555,96.1,548c1.16-3.5,3.36-6.47,5.72-10.86,1.36,5.63,2.52,9.86,3.38,14.19.74,3.72,2.17,5.35,5.53,5.16,6.31-.35,12.64-.1,19-.1l.58,1.68Z"/><path class="cls-1" d="M258.23,633.68c10.79,4.9,21.86,5.15,33,3.56,14.05-2,25.91-8.33,30.21-26.48,4.68-19.79,1.93-38-10.58-52.75a62.73,62.73,0,0,0-25.2-18.49c-19.84-7.75-39.3-4.33-58.71,2.7-4.13,1.49-5.78,4.11-6.24,9.36a793.65,793.65,0,0,1-17.13,110.66c-3.14,13.53-6.87,26.87-10.41,40.6,13.37.15,25.71,4.55,38,13.55,1.42-19.81,2.76-38.46,4.1-57.11,8.57,20.49,8.55,42.54,8.54,63.66L282,691.73,257,635C257.42,634.55,257.82,634.11,258.23,633.68Zm-11.79-45a56,56,0,0,0,2.27-12c.45-6.75,3.58-9.3,8.53-10.64,10.7-2.91,22.71,3,27.73,14.18,4.59,10.18,1.57,18.77-7.67,21.54a37,37,0,0,1-5.66,1c-9-.13-16.17-2.25-22.79-7.18C246.61,593.93,245.36,592.32,246.44,588.7Z"/><path class="cls-1" d="M381.27,543.54c-7.68,1.38-15,2.79-22.41,4-4.57.75-10.67-.78-13.34,2.3-3,3.46-2.85,11-4.18,16.7-9.57,41.09-23.08,79.79-45.46,113.08-2.5,3.72-5.23,7.22-8.33,11.48,18.24,1.68,34.49,7.56,48.59,21.68,4.11-13.85,8.08-27.26,12.15-41,8,2.06,15.36,3.79,22.63,6,1.57.48,3.28,2.44,4.08,4.28,4.31,9.92,8.35,20,12.32,29.66l32-12.36c-12.67-23.52-23.16-47.74-30.13-74.1S378.69,571.83,381.27,543.54ZM355.1,639.19c.73-5.76,1.4-11,2.07-16.28l1.24.4c1.44,5.15,2.88,10.29,4.45,15.88Z"/><path class="cls-1" d="M132.89,638.62a6.56,6.56,0,0,0-4.21,3.58c-7.41,16.73-14.48,33.7-22,50.39-2.47,5.52-5.83,10.43-8.55,15.2l35,12.76c1.47-6.78,3.57-13.95,4.48-21.35.75-6,2.87-8.22,7.54-7.6a46.37,46.37,0,0,0,5.06,0c-1.39,9.15-2.65,17.44-4,26.18l40.11-14.49q-8.26-35.27-16.22-69.25C157.16,635.61,145,636.93,132.89,638.62Zm9.23,37.27c.52-4,1-7.86,1.51-11.69l1.45-.2c.86,4.1,1.71,8.2,2.73,13.12Z"/><path d="M186.12,426c-4.68-21.47-17.43-34.61-33.33-43.38-7.31-4-14.93-7.22-22.49-10.53-10.52-4.61-18-13.24-22.71-25.51S105,321.36,112.73,312c9.12-11,22.12-8,26,6,2.85,10.35.32,20.45-6.89,26.83-2.15,1.91-4.55,3.38-7.07,5.21,1,.46,1.71.86,2.49,1.17C141.51,357,155.86,362.47,170,368.7c4,1.75,6.11,1,7.33-3.44,3.06-11.24,7.27-22.34,8.55-33.91,2.74-24.85-2.12-47.29-19.41-63.1-16-14.59-34.32-18.76-53.42-14-28.47,7-49.64,26.34-59.57,60.86-4.89,17-4.71,35,2.71,50.89s19.17,25.72,34,30.39c9.31,2.93,18.36,7.52,27.16,12.38C125,413,129.87,421,132.7,430.63c4.3,14.6-2.14,27.51-14.24,28.61-13.24,1.22-23.76-6.86-34.1-15.51-6.49-5.43-8-13.79-9.22-22.4a6.52,6.52,0,0,0-.77-1.65c-26.87,11-49.11-2.8-70.8-20C11.12,412.79,15,427.28,16.2,442.9c1.08,13.75,6.18,25,13.75,34.84a76.49,76.49,0,0,0,29.79,23.38c21.34,9.6,43.28,9.55,65.41,5.68,15.86-2.77,30.57-9.17,43.21-21.5C184,470,191.46,450.5,186.12,426Z"/><path d="M329.74,410.94c-2.41,1.43-4.05,2.43-5.7,3.38-16.58,9.5-33.64,16.41-52.29,14-6.9-.89-13.51-3.1-19.13-8.67,44.21-34.77,72.62-85.77,100.5-137.46a5.15,5.15,0,0,0-2.87,1.11c-19.18,13-39.68,19.55-61.58,18.92-3.71-.11-5.2,1.45-6.39,5.54-4,13.76-10,26.11-19.17,35.63-3.21,3.31-7,5.79-11.65,9.58,3-34,11-63.71,26.16-92.4-22,11.87-43.6,17-66.34,15.64-1.79,90.54-18.43,176.9-39.91,261.08l59.15-8V486.63c29,10.59,56.85,22.19,86.56,24C318,476.31,318.43,443,329.74,410.94Z"/><path d="M410.86,302.93l-54.67,11.39c-2.42,76.86-14.49,151.83-46.66,220.26l24.18,17.61c1.63-5.19,3.07-9.76,4.35-13.82,4.95-.28,9.43-.58,13.91-.77,2.7-.11,4.07-1.49,4.82-4.91,1.61-7.33,3.56-14.56,5.7-21.69.48-1.63,2.17-3.68,3.44-3.84,14-1.81,28.05-2.71,41.95-5.11,5.49-.95,6.74,1.35,8.05,6.81,4.63,19.27,9.62,38.4,14.59,58.08,23.78-3.23,46.62-10,69.81-18.14C461.39,471,429.62,390.26,410.86,302.93Zm-37,148.66c2.5-17.74,4.9-34.79,7.31-51.84l1.18-.18,16.64,52Z"/><path d="M585.73,887.56c-11.47-39-9.21-78,.79-116.84,4.91-19.09,5.65-19.62,22.14-19.75,4.07,0,8.14,0,12.65,0-6.41-24.23-7-48.47-7.94-74.07-22.14,31.63-48.63,52.8-79.71,64.74C535.55,745,537.25,748,539,751l-.88.78a4.2,4.2,0,0,1-1.25-.72c-16.45-18.72-41.33-14.83-56.93,1.62-14.39,15.19-16.49,37.46-5.18,56.25,5.48,9.1,10.61,18.54,16.35,27.38,8.12,12.5,8.42,23,.91,38.65-3.46,7.23-10.47,11-17.2,9.6s-11.46-8.49-9.9-16.85a52.36,52.36,0,0,1,5.46-15c2.52-4.67,6.09-8.49,9.49-13.06l-24.33-21.83c-13.27,16.62-18.86,36-16.52,58.4,2.2,21,11.09,36.5,27.84,43.55,19.29,8.11,42.28-1.08,53.87-20.88,11.84-20.24,11.69-50.69-.31-70.69a61.55,61.55,0,0,0-24-22.62c-6.19-3.4-9.63-9.38-9.07-14.78.61-6,6.09-13.56,11.89-14.09,3.78-.35,8.68,1,11.4,3.92,4.39,4.76,7.6,11.3,10.92,17.4,1.87,3.41,3,7.45,4.58,11.66,4.61-16.16,9-31.72,13.48-47.28,3.78,11.82,1.85,23.25.33,33.49l31.61-30.51c.44.54.89,1.07,1.33,1.6-7.53,58.28-17.2,115.56-50.54,161.09l85,3.77c-1.24-1.95-2.33-3.71-3.46-5.43A143.79,143.79,0,0,1,585.73,887.56Z"/><path d="M388.61,711.88l-31.86,2.45c-1.52,14.9-3,29.29-4.48,43.82l-15.42-2.8c1.65-15,3.22-29.37,4.73-43.13l-31-3.24c-2,31.27-5.08,62.55-20.54,89.9,6.58,2.79,12.81,5.17,18.86,8.12,3.12,1.53,5.25.65,6.9-2.45,3.19-6,6.09-12.27,9.38-18.2.83-1.5,2.85-3.28,4-3,5.85,1.45,11.6,3.55,17.5,5.46a40.86,40.86,0,0,1-.22,4.27c-4.48,26.81-11.58,52.23-24.88,74.69C308.43,890,291.68,901.31,268.34,896c4.72,21.58-2.67,36.76-16.38,49,16-2.45,31.5-5.13,47-8.56,21.32-4.73,37.75-18.21,47.75-42.4,2.65-6.41,5.38-12.79,7.79-19.34C369,835.3,378.07,794,383.6,751.36,385.3,738.28,386.92,725.19,388.61,711.88Z"/><path d="M398.23,829.83c10.93,2.41,18.91,11,26.69,19.8,2.88,3.25,5.31,7.1,8.06,10.82,5.06-16.76,9.76-32.3,14.6-48.29-14.48-11-31.1-15.77-48-21.37,2.82-9.14,5.51-17.88,8.38-27.22,21.62,9.16,39.37,25.46,57,40.49-1.77-26-3.54-52-5.34-78.41a270.19,270.19,0,0,0-69.92,1c-2.31,60.4-14.24,118.08-26.45,176.23,22.26-.75,43,1.88,58.64,22.79,3.53-17.11,7-33.74,10.51-50.89-14.44-8.55-29.8-6.4-45.3-5.24,1.29-11.62,2.46-22.42,3.71-33.2C391.68,829,392.24,828.5,398.23,829.83Z"/><path d="M285,878.14c15.63-5.93,32.38-38,31.9-60.16l-32.46-6.61c-.64,3.52-1.19,8.44-2.48,13.06a59.39,59.39,0,0,1-5.11,13.27c-6.21,10.89-16.09,10.25-20.6-1.78a87.48,87.48,0,0,1-5-23c-1.54-18.43,1.31-35.75,11.85-50,10.79-14.55,18.24-16.09,31.52-7.5q.92-18.21,1.88-37.28c-14.38-3-27,2.17-38.49,13.35-27.5,26.82-34.85,84.89-18.67,122.55C247.58,873.07,269.14,884.18,285,878.14Z"/><path d="M132.92,769c-1.17-13-3.84-25.47-9.78-36.58-9.68-18.09-24.9-25.69-42.2-21.37C67.84,714.36,57.31,723,47.51,733.7,17.41,766.46,0,806.52,0,860.29c.18,14.09,1.37,31.49,7.71,47.65,7,17.82,18.69,26.85,34.75,27.38,17.66.59,32.2-8.88,45-22.47C123.2,874.89,138.09,826.66,132.92,769Zm-46.17,30.6c-.81,19.19-5.81,36.68-16.32,51.25-5.74,8-13,11.06-18.23,7.53-6.72-4.53-6.59-13.09-7-21.67,1.31-17.67,5.53-34.58,15-49,4.38-6.63,9.71-11.77,17.33-9C83.19,780.9,87.19,789.34,86.75,799.64Z"/><path d="M206.43,799.18l4.11-2.37c16.78-9.67,26.65-30.48,25.19-53.08-1.22-18.75-15.48-34.49-33.43-37.22-26.64-4-49.89,7.73-73.4,23.25,9.7,4.29,13.92,9.37,17.39,20.35a75.5,75.5,0,0,1,2.09,8.22c5.2,27.16,3.28,54-3,80.47-6.33,26.73-16.14,50.18-39.69,60-5.14,2.15-5.67,6.42-4.23,13.19A173.12,173.12,0,0,1,105,934.93c.6,8.12.13,16.36.13,24.56,11.56-.63,23.69-9.39,36-24.48,24.06-29.45,30.12-65.69,27-105.79,9.08,13.82,13.6,29.37,14.53,46.88,1,19-6,32.46-19.94,43.19,20.19-1,37.86,1.85,53.37,16.43,10.35-22,17.86-44.64,15.15-70C228.65,840.77,219.07,819.11,206.43,799.18Zm-5.62-41.92c-4.28,7.13-10.31,10.32-17.27,10.59-1.38.06-3.44-2.12-4.14-3.89-3.62-9.19-6.9-18.59-10.56-28.63,9.61-.91,19-1.6,28,3.39C204.47,742.92,205.79,749,200.81,757.26Z"/><path d="M770.81,890.7c-6.1-22.89-7.87-46.64-9-70.49-1.69-35-.61-70,2.13-104.9,1.91-24.36,4.29-48.67,6.76-72.95,1-9.63,2.78-19.13,4.17-28.42L728,621.55c-.28,4-.4,8.11-.88,12.17-2.85,24.21-5.84,48.41-8.59,72.64a10.39,10.39,0,0,0,1.67,6.1c4.75,7.25,8.09,15.27,8.35,24.61.56,20.07-7.81,35.14-18.64,48.79a18.36,18.36,0,0,0-3.41,7.69c-5.5,29.83-10.59,59.78-16.24,89.57-4.45,23.5-16.26,40.14-33.51,51.2-2.67,1.72-5.29,3.54-7.92,5.35-1,.69-1.94,1.49-2.33,1.79l66.8-6.22a32.29,32.29,0,0,0,.23-3.41c-.86-38.84,2.84-77.26,7.15-115.61.2-1.84,2.06-4.8,3.19-4.83,5.41-.14,10.84.54,16.37.94-1.88,35.81-1.62,70.17,4.83,104.11l40.7,2.9C777.59,910.13,774.3,903.79,770.81,890.7ZM739.88,782.07l-13.36-2.49c4.77-26.22,9.45-51.9,14.13-77.58H742C741.33,728.42,740.61,754.85,739.88,782.07Z"/><path d="M602.69,899.12,647,905.23c-4.41-32.83-5.31-67.17-2.26-84.14l23.52,47.08,19.69-32.46-24-33.92c.3-.5.61-1,.92-1.5,11.82,1.31,22.61-3,32.72-9.73,15.14-10.08,25.07-25.28,27.44-46.66,2.41-21.74-12.46-40.08-28.51-35.51C683.9,712,672.39,718,660.9,724.62c-11,6.34-22,12.84-32.89,19.6-1.37.85-2.61,3.62-2.74,5.61A880.17,880.17,0,0,1,609,869.53C606.93,879.78,604.66,890,602.69,899.12Zm54-147.88c9.46-6.65,18.66-13.8,29.94-14.34,3.85-.18,8.71-1.5,10.51,4.42,1.92,6.33-2.11,9.65-5.8,12.74-11.42,9.56-23.92,15.27-37.77,16.22a13.8,13.8,0,0,1-2.49-.07c-.3,0-.57-.36-.9-.58C649.11,761.75,650.42,755.68,656.74,751.24Z"/><path d="M586.81,142.83l-83.53-26.11c1.34,10.34,3.26,21.33,4.08,32.44a67.58,67.58,0,0,1-6.29,34.06c-4.51-15.74-8.79-30.15-12.71-44.71-1.06-4-2.54-4.85-5.74-4.54-10.18,1-20.38,1.91-30.58,2.14-6.93.15-13.87-.9-21.51-1.46l43.38-50.8L411.82,37.73c-3,17.38-11.28,31.05-20.53,43.91a235.14,235.14,0,0,1-30.12,34.59l-1.84-1.07c8.41-37.67,16.83-75.34,25.46-114-24.6,12.26-49.59,11.62-75.08,9.26-3.74,95.71-13.5,190.13-27.59,285,19.66-13,39.91-18.35,61-18.87-1.91-12.63-3.84-24.5-5.41-36.44-.36-2.72-.34-7,1-8.31,7.5-7.18,15.43-13.64,23.82-20.87,6.83,32.12,7.92,63-3.08,93.6L448,289.77c-1.57-50-13.22-93.71-52.28-120.06l27.44-28.8c3.4,7.13,7.21,13.47,9.64,20.54,8.61,25,16.42,50.36,25.23,75.22,3.54,10,3.11,17.31-4.66,23.22-3.21,2.44-3.79,5.95-3.36,10.54.74,7.89.75,15.88,1.06,23.64-13,3.52-25.78,2.68-37,6.88L436.86,351c.41-.33,1.41-1.06,2.35-1.88A599.65,599.65,0,0,0,507.3,279.9c28.51-34.37,53.68-71.9,71.8-116C582,156.85,584.4,149.46,586.81,142.83Z"/><path d="M300.06,97.41c-3.68-29-17-44.95-40.83-44.82-13.93.08-25.64,8.44-37,17.45-1.47,1.17-2.9,2.42-4.34,3.63l-1.6-.68c.57-24.15,1.14-48.3,1.72-73C162.31,21,105.67,37,46.74,39.61c3.53,28.52-.2,55.33-8.56,82.79l67.69-11.89c0,2.23.12,3.66,0,5-1.26,12.44-2,25-4,37.3-5.48,34-15.11,66.42-26.43,97.49,12.38-1.64,24.79-4.67,37.17-4.52s25,3.44,37.66,5.39c-1-12-3.06-24.94-2.79-37.77.74-36.6,2.42-73.18,3.89-109.76.06-1.46,1.56-3.77,2.68-4.09,16.27-4.65,32.58-9,49.43-13.62a21,21,0,0,1-1.44,2.46c-21.88,26.73-35.14,58.81-39.09,96.46-1.67,15.91-1.25,31.76,5.05,46.38,5.68,13.15,14,22.55,26.36,25.18,20.2,4.31,38.15-2.56,54.15-17.63,18-16.93,30.49-39.21,39.66-64.32C297.12,150.06,303.53,124.7,300.06,97.41Zm-75.67,95.66c-4.69,4.26-10.37,5.51-15.55,1.41-4.77-3.78-5.3-10.33-4.48-16.59,2.24-17.27,8.87-31.7,19.86-42.84a23,23,0,0,1,7.95-5c9.4-3.71,15.11,1.6,15,16.88C244.76,163.75,237.87,180.82,224.39,193.07Z"/><path d="M616.68,194.08c-9.71-10-21.27-8.83-32.37-3.65-21.68,10.12-41.73,46.55-41.73,75.24,0,2.26-.12,4.54,0,6.79.93,14.65,6.76,25.28,16.61,27.6,5.21,1.23,11.43,1.36,16.23-1,24.37-11.93,42.26-32.33,50.07-63.89C629.36,219.67,627.13,204.84,616.68,194.08Zm-35.17,66.31c-5.94,1.45-8.94-1.59-8.91-9,0-9,7.82-22.34,14.78-25.27,4.84-2,9.11,1.35,9.74,7.71C598.1,243.76,589.47,258.46,581.51,260.39Z"/><path d="M713.34,463.82c-24.09,35.38-55.67,52.56-91.57,62.57,7.89,4.31,10.5,11.71,12.29,19.9,10.67,48.69,9.24,97.82,3.51,147.07-1.26,10.81-3.43,21.46-5.22,32.47,19.81-22.49,44.87-26.43,69.93-31.35-3-20.46-.55-40.46,3.43-61.7C694.38,645.88,682,654,668.54,660a10.83,10.83,0,0,1-.8-2.22c-.84-14-1.73-27.92-2.33-41.9-.06-1.43,1.38-3.89,2.5-4.3,5.58-2.06,11.22-4.39,17-5.1,7-.86,14.19-.2,21.07-.2,1.2-17,2.46-34.55,3.73-52.48l-48.58,22.69c-1.31-11-2.45-20.88-3.69-30.78-1.41-11.19-1.48-11.28,7.53-14.77,17.65-6.83,35.84-7.82,54.16-7.34,1.75,0,3.51,0,5.35,0C720.71,503.46,717.1,484,713.34,463.82Z"/><path d="M593,523.14c-6.71-13.87-9.58-28.49-7.11-44.33,1.76-11.31,5.23-21.82,12.95-29.14,4.28-4.07,9.19-4.93,14.12-1.53,4.42,3,6.2,8.65,5.32,16-2.21,18.49-10.9,28.84-28,32.82L618.94,518c9.67-9.28,16.37-21.54,21.25-34.79,6.42-17.46,5.68-35.13-4.67-50.48-10.08-14.94-23.38-18.58-38.14-13.22-16.24,5.89-25.9,20.44-31.43,39.36-2.59,8.87-2.2,8.91-10,9.13-9.21.26-18.41.87-27.62,1.16-3.65.12-5.69,1.72-6.65,6.43-2.88,14.15-6.18,28.17-9.25,42.26-.8,3.65-1.39,7.38-2.1,11.18l10.57,1.85c-5,34.43-9.92,68.31-15,103.3a19.6,19.6,0,0,1-1.21-2.82C500,599.76,477,582.18,456,578.5c-14.46-2.54-29.4-1.1-44.13-1-7.26,0-14.51.92-22.66,1.48,5.74,4,10.67,7,15.25,10.66a37.71,37.71,0,0,1,13.45,20.12c5.73,21.21,6,42.86,3.42,64.69-1.08,9.19-2.77,18.28-4.06,26.62a75.71,75.71,0,0,1,9.31-.45c8,.53,16,2.25,24,1.9,18.57-.83,34-10,45.18-28.74,2.53-4.24,4.75-8.76,7.72-14.27-.94,10.6-1.59,20-2.75,29.23-.21,1.62-2.43,3.57-4,4.1-5.79,2-11.74,3.2-17.55,5.11a5.38,5.38,0,0,0-3,3.8c-.22,13.12-.14,26.24-.14,39.41,9.35-1.67,19.19-3.84,29.11-5.08,10.09-1.26,20.25-1.59,30.27-2.32.89-15,1.79-30.06,2.72-45.66l-17,1.23c0-2-.07-3.25,0-4.45,1.81-27.07,2.88-54.26,5.69-81.18,2.37-22.78,6.84-45.22,10.21-67.85.63-4.24,2.25-5.43,5.46-4.9s6.62.74,10.32,1.13c2.05-18.55,3.75-36.91,9.54-54.23-.79,18,4.45,33.4,11.68,48.48,10.63,22.2,20.06,45.13,21.46,71.66.66,12.63,1.12,25.17-3.57,36.9-3.6,9-11.07,13.14-18.4,10.63-8.48-2.9-13-11-12.25-21.75s4.36-19.67,10.93-25.18c-2.51-12.4-4.82-23.82-7.22-35.66-15.77,13.53-28.68,30.27-34.35,53.87a53.3,53.3,0,0,0-1.46,18.16c4.16,34.65,32.8,57.68,60.37,48.54,18-6,37.07-22.3,39.2-52.25,1.13-15.78-.14-31.06-6.31-45C613,564.94,603,544,593,523.14ZM449.17,661.5c3.34-21.2,2.6-42-4.39-62.08,14.14-.13,29.16,13.57,29.27,27.07C474.18,642.47,463.92,659.41,449.17,661.5Z"/><path d="M187.45,575c-9.34-28.11-26.84-45.34-50-52.26-18.25-5.45-37.21-7.53-55.95-10.15C69.89,511,58.13,511.17,46,510.51,42.11,581.65,23.52,646.87,2.78,712.17c18.42-7,34.62,0,50.27,9.65,6-2.93,5.21-9.48,5.57-15.26,1.58-25.36,5.61-50,13.12-73.79,3.91-12.39,3.91-12.15,14.44-9.79,23,5.17,46.1,7.57,69.32,1.85,11.43-2.81,21.85-7.8,28.93-20.1A34.65,34.65,0,0,0,187.45,575Zm-81.31-7.24c1.36,9.94,2.81,20.55,4.27,31.17l-1.19.76L89.75,573.29,66.23,601.08l-1-.38,13.47-34.83-18.63-16.4c5,0,8.84-.07,12.7,0a24.8,24.8,0,0,1,6.5.65C85,551.83,88.8,550,91.1,543c1.16-3.5,3.36-6.47,5.72-10.86,1.36,5.63,2.52,9.86,3.38,14.19.74,3.72,2.17,5.35,5.53,5.16,6.31-.35,12.64-.1,19-.1l.58,1.68Z"/><path d="M253.23,628.68c10.79,4.9,21.86,5.15,33,3.56,14.05-2,25.91-8.33,30.21-26.48,4.68-19.79,1.93-38-10.58-52.75a62.73,62.73,0,0,0-25.2-18.49c-19.84-7.75-39.3-4.33-58.71,2.7-4.13,1.49-5.78,4.11-6.24,9.36a793.65,793.65,0,0,1-17.13,110.66c-3.14,13.53-6.87,26.87-10.41,40.6,13.37.15,25.71,4.55,38,13.55,1.42-19.81,2.76-38.46,4.1-57.11,8.57,20.49,8.55,42.54,8.54,63.66L277,686.73,252,630C252.42,629.55,252.82,629.11,253.23,628.68Zm-11.79-45a56,56,0,0,0,2.27-12c.45-6.75,3.58-9.3,8.53-10.64,10.7-2.91,22.71,3,27.73,14.18,4.59,10.18,1.57,18.77-7.67,21.54a37,37,0,0,1-5.66,1c-9-.13-16.17-2.25-22.79-7.18C241.61,588.93,240.36,587.32,241.44,583.7Z"/><path d="M376.27,538.54c-7.68,1.38-15,2.79-22.41,4-4.57.75-10.67-.78-13.34,2.3-3,3.46-2.85,11-4.18,16.7-9.57,41.09-23.08,79.79-45.46,113.08-2.5,3.72-5.23,7.22-8.33,11.48,18.24,1.68,34.49,7.56,48.59,21.68,4.11-13.85,8.08-27.26,12.15-41,8,2.06,15.36,3.79,22.63,6,1.57.48,3.28,2.44,4.08,4.28,4.31,9.92,8.35,20,12.32,29.66l32-12.36c-12.67-23.52-23.16-47.74-30.13-74.1S373.69,566.83,376.27,538.54ZM350.1,634.19c.73-5.76,1.4-11,2.07-16.28l1.24.4c1.44,5.15,2.88,10.29,4.45,15.88Z"/><path d="M127.89,633.62a6.56,6.56,0,0,0-4.21,3.58c-7.41,16.73-14.48,33.7-22,50.39-2.47,5.52-5.83,10.43-8.55,15.2l35,12.76c1.47-6.78,3.57-13.95,4.48-21.35.75-6,2.87-8.22,7.54-7.6a46.37,46.37,0,0,0,5.06,0c-1.39,9.15-2.65,17.44-4,26.18l40.11-14.49q-8.26-35.27-16.22-69.25C152.16,630.61,140,631.93,127.89,633.62Zm9.23,37.27c.52-4,1-7.86,1.51-11.69l1.45-.2c.86,4.1,1.71,8.2,2.73,13.12Z"/></g></g></svg>