<svg xmlns="http://www.w3.org/2000/svg" viewBox="0 0 811.34 974.3"><defs><style>.cls-1{fill:#fff;}</style></defs><title>tokyo-ska-logo</title><g id="Layer_2" data-name="Layer 2"><g id="Layer_1-2" data-name="Layer 1"><path class="cls-1" d="M768.4,22.07H607.06c10.92,59.61,19,118.6,17.23,179.77-2.63-1.52-4.39-2.67-6.24-3.56-1.68-.8-3.47-1.31-5.59-2.1a695.43,695.43,0,0,0-3-95.27C606.3,69.4,600.88,38.53,591,7.48L784.39,5c-2.12,11.39-4.28,22.05-6.07,32.81-9.43,56.6-12.24,113.81-9.8,171.42,2,47.55,8.72,94,23.43,138.26,4.92,14.79,11.49,28.76,17.3,43.11.73,1.81,2,3.66,2,5.51.19,11.47.1,22.95-.87,35-1.41-2.15-2.89-4.22-4.2-6.45-21-35.83-33.51-76.16-41.33-118.88-8.32-45.52-9.85-91.69-8.51-138.17,1.22-42.24,4.29-84.22,9.49-126C766.64,35.09,767.54,28.61,768.4,22.07Z"/><path class="cls-1" d="M719.72,152.65q-7,35-14,70l-1-.14q-3.21-35.36-6.43-70.7l-1.06-.14q-11.94,92-23.89,184l-1.34.17c-5.49-56-11-112.07-16.53-168.74-1.26,11.39-2.46,22.17-3.65,33l-.69.12Q648.07,174.61,645,149l-.71,0q-4.32,34.26-8.63,68.54c-2.91-62-7.42-123.69-19-185.26H760.89c-1.23,11.89-2.47,23.89-3.73,35.89-6.3,60.12-11,120.36-7.33,181.06,2.25,37.6,6.45,74.79,18.12,110.47-2.34-3.48-4.83-6.82-7-10.45-16.13-27-25.2-57.82-31.35-90.11-6.26-32.83-8.34-66.23-8.78-99.84,0-2.17,0-4.35,0-6.52Zm-94-108.93c4,32,7.8,62.66,11.63,93.37l1,0q2.25-33,4.51-66l1,0L651.41,131l.91.08q2.1-19.14,4.19-38.3l.59,0q8,93.71,16.09,187.43l1-.06Q686.36,185,698.58,89.76l.72,0q4.17,45.36,8.35,90.73l1,.09,16.08-81c2.37,59,2.65,118.12,18,174.89-4.34-77.34-1.31-154.34,5.69-230.8Z"/><path class="cls-1" d="M488.53,513.45c-.77-1.37-1.49-2.48-2-3.7-2.89-6.22-5.73-12.48-8.27-18.05,10.83-9,21.8-17.05,31.73-26.67,39.08-37.88,65.43-86.94,81.87-144.29,2.06-7.19,4.66-12.77,10.6-15.75,2.74-1.38,5.13-3.82,8.52-6.42a463,463,0,0,1-46.21,120.82C544.16,456.51,519.19,488.27,488.53,513.45Z"/><path d="M763.4,17.07H602.06c10.92,59.61,19,118.6,17.23,179.77-2.63-1.52-4.39-2.67-6.24-3.56-1.68-.8-3.47-1.31-5.59-2.1a695.43,695.43,0,0,0-3-95.27C601.3,64.4,595.88,33.53,586,2.48L779.39,0c-2.12,11.39-4.28,22.05-6.07,32.81-9.43,56.6-12.24,113.81-9.8,171.42,2,47.55,8.72,94,23.43,138.26,4.92,14.79,11.49,28.76,17.3,43.11.73,1.81,2,3.66,2,5.51.19,11.47.1,22.95-.87,35-1.41-2.15-2.89-4.22-4.2-6.45-21-35.83-33.51-76.16-41.33-118.88-8.32-45.52-9.85-91.69-8.51-138.17,1.22-42.24,4.29-84.22,9.49-126C761.64,30.09,762.54,23.61,763.4,17.07Z"/><path d="M714.72,147.65q-7,35-14,70l-1-.14q-3.21-35.36-6.43-70.7l-1.06-.14q-11.94,92-23.89,184l-1.34.17c-5.49-56-11-112.07-16.53-168.74-1.26,11.39-2.46,22.17-3.65,33l-.69.12Q643.07,169.61,640,144l-.71,0q-4.32,34.26-8.63,68.54c-2.91-62-7.42-123.69-19-185.26H755.89c-1.23,11.89-2.47,23.89-3.73,35.89-6.3,60.12-11,120.36-7.33,181.06,2.25,37.6,6.45,74.79,18.12,110.47-2.34-3.48-4.83-6.82-7-10.45-16.13-27-25.2-57.82-31.35-90.11-6.26-32.83-8.34-66.23-8.78-99.84,0-2.17,0-4.35,0-6.52Zm-94-108.93c4,32,7.8,62.66,11.63,93.37l1,0q2.25-33,4.51-66l1,0L646.41,126l.91.08q2.1-19.14,4.19-38.3l.59,0q8,93.71,16.09,187.43l1-.06Q681.36,180,693.58,84.76l.72,0q4.17,45.36,8.35,90.73l1,.09,16.08-81c2.37,59,2.65,118.12,18,174.89-4.34-77.34-1.31-154.34,5.69-230.8Z"/><path d="M483.53,508.45c-.77-1.37-1.49-2.48-2-3.7-2.89-6.22-5.73-12.48-8.27-18.05,10.83-9,21.8-17.05,31.73-26.67,39.08-37.88,65.43-86.94,81.87-144.29,2.06-7.19,4.66-12.77,10.6-15.75,2.74-1.38,5.13-3.82,8.52-6.42a463,463,0,0,1-46.21,120.82C539.16,451.51,514.19,483.27,483.53,508.45Z"/><path class="cls-1" d="M191.12,440.83c-4.68-21.47-17.43-34.61-33.33-43.38-7.31-4-14.93-7.22-22.49-10.53-10.52-4.61-18-13.24-22.71-25.52s-2.62-25.22,5.14-34.58c9.12-11,22.12-8,26,6,2.85,10.35.32,20.45-6.89,26.83-2.15,1.91-4.55,3.37-7.07,5.21,1,.45,1.71.86,2.49,1.17,14.26,5.76,28.61,11.22,42.74,17.45,4,1.75,6.11,1,7.33-3.44,3.06-11.24,7.27-22.34,8.55-33.91,2.74-24.85-2.12-47.29-19.41-63.1-16-14.6-34.32-18.76-53.42-14.05-28.47,7-49.64,26.35-59.57,60.87-4.89,17-4.71,35,2.71,50.89s19.17,25.72,34,30.38c9.31,2.94,18.36,7.53,27.16,12.39,7.63,4.22,12.54,12.28,15.37,21.9,4.3,14.6-2.14,27.5-14.24,28.61-13.24,1.21-23.76-6.86-34.1-15.51-6.49-5.43-8-13.79-9.22-22.4a6.73,6.73,0,0,0-.77-1.66c-26.87,11-49.11-2.79-70.8-20C16.12,427.61,20,442.1,21.2,457.72c1.08,13.75,6.18,25,13.75,34.84a76.49,76.49,0,0,0,29.79,23.38c21.34,9.6,43.28,9.55,65.41,5.68,15.86-2.77,30.57-9.17,43.21-21.51C189,484.85,196.46,465.32,191.12,440.83Z"/><path class="cls-1" d="M334.74,425.76c-2.41,1.43-4.05,2.42-5.7,3.37-16.58,9.51-33.64,16.42-52.29,14-6.9-.89-13.51-3.1-19.13-8.67,44.21-34.78,72.62-85.78,100.5-137.46a5.08,5.08,0,0,0-2.87,1.11c-19.18,12.95-39.68,19.55-61.58,18.92-3.71-.11-5.2,1.45-6.39,5.54-4,13.76-10,26.11-19.17,35.62-3.21,3.32-7,5.8-11.65,9.59,3-34,11-63.72,26.16-92.4-22,11.87-43.6,17-66.34,15.63-1.79,90.55-18.43,176.91-39.91,261.09l59.15-8V501.45c29,10.58,56.85,22.18,86.56,24C323,491.13,323.43,457.81,334.74,425.76Z"/><path class="cls-1" d="M415.86,317.75l-54.67,11.39C358.77,406,346.7,481,314.53,549.4L338.71,567c1.63-5.19,3.07-9.76,4.35-13.82,4.95-.28,9.43-.59,13.91-.77,2.7-.11,4.07-1.49,4.82-4.91,1.61-7.33,3.56-14.56,5.7-21.69.48-1.63,2.17-3.68,3.44-3.84,14-1.81,28.05-2.72,41.95-5.11,5.49-1,6.74,1.35,8.05,6.81,4.63,19.27,9.62,38.4,14.59,58.08,23.78-3.23,46.62-10,69.81-18.14C466.39,485.84,434.62,405.08,415.86,317.75Zm-37,148.65c2.5-17.73,4.9-34.78,7.31-51.83l1.18-.18,16.64,52Z"/><path class="cls-1" d="M590.73,902.38c-11.47-39-9.21-78,.79-116.84,4.91-19.09,5.65-19.62,22.14-19.75,4.07,0,8.14,0,12.65,0-6.41-24.23-7-48.47-7.94-74.07-22.14,31.63-48.63,52.79-79.71,64.74,1.89,3.34,3.59,6.36,5.29,9.39l-.88.78a4.43,4.43,0,0,1-1.25-.72c-16.45-18.72-41.33-14.84-56.93,1.62-14.39,15.19-16.49,37.45-5.18,56.25,5.48,9.1,10.61,18.53,16.35,27.38,8.12,12.5,8.42,23,.91,38.65-3.46,7.23-10.47,11-17.2,9.6s-11.46-8.49-9.9-16.85a52.36,52.36,0,0,1,5.46-14.95c2.52-4.67,6.09-8.5,9.49-13.06l-24.33-21.83c-13.27,16.62-18.86,36-16.52,58.4,2.2,21,11.09,36.5,27.84,43.54,19.29,8.12,42.28-1.07,53.87-20.87,11.84-20.24,11.69-50.7-.31-70.69-6.24-10.4-14.54-17.41-24-22.62-6.19-3.4-9.63-9.38-9.07-14.78.61-6,6.09-13.56,11.89-14.09,3.78-.35,8.68,1,11.4,3.92,4.39,4.76,7.6,11.3,10.92,17.4,1.87,3.41,3,7.45,4.58,11.66,4.61-16.16,9-31.72,13.48-47.28,3.78,11.82,1.85,23.24.33,33.49l31.61-30.51,1.33,1.6c-7.53,58.28-17.2,115.56-50.54,161.08l85,3.78c-1.24-2-2.33-3.71-3.46-5.43A143.93,143.93,0,0,1,590.73,902.38Z"/><path class="cls-1" d="M393.61,726.7l-31.86,2.44c-1.52,14.91-3,29.3-4.48,43.82l-15.42-2.79c1.65-15,3.22-29.37,4.73-43.13l-31-3.24c-2,31.27-5.08,62.55-20.54,89.9,6.58,2.79,12.81,5.17,18.86,8.12,3.12,1.52,5.25.65,6.9-2.45,3.19-6,6.09-12.27,9.38-18.2.83-1.5,2.85-3.28,4-3,5.85,1.46,11.6,3.56,17.5,5.47a41.18,41.18,0,0,1-.22,4.27c-4.48,26.81-11.58,52.23-24.88,74.69-13.14,22.19-29.89,33.53-53.23,28.26,4.72,21.58-2.67,36.76-16.38,48.94,16-2.44,31.5-5.12,47-8.55,21.32-4.73,37.75-18.21,47.75-42.4,2.65-6.42,5.38-12.79,7.79-19.34,14.5-39.39,23.62-80.73,29.15-123.33C390.3,753.1,391.92,740,393.61,726.7Z"/><path class="cls-1" d="M403.23,844.64c10.93,2.41,18.91,11,26.69,19.8,2.88,3.26,5.31,7.11,8.06,10.83,5.06-16.76,9.76-32.3,14.6-48.29-14.48-11-31.1-15.77-48-21.37,2.82-9.15,5.51-17.88,8.38-27.22,21.62,9.16,39.37,25.46,57,40.49-1.77-26-3.54-52-5.34-78.42a271.08,271.08,0,0,0-69.92,1c-2.31,60.4-14.24,118.09-26.45,176.23,22.26-.74,43,1.89,58.64,22.8,3.53-17.11,7-33.75,10.51-50.89-14.44-8.55-29.8-6.4-45.3-5.25,1.29-11.61,2.46-22.41,3.71-33.2C396.68,843.85,397.24,843.32,403.23,844.64Z"/><path class="cls-1" d="M290,893c15.63-5.93,32.38-38,31.9-60.16l-32.46-6.61c-.64,3.52-1.19,8.44-2.48,13a59.28,59.28,0,0,1-5.11,13.28c-6.21,10.88-16.09,10.25-20.6-1.78a87.48,87.48,0,0,1-5-23c-1.54-18.43,1.31-35.75,11.85-50,10.79-14.54,18.24-16.08,31.52-7.49q.92-18.21,1.88-37.28c-14.38-3-27,2.17-38.49,13.35-27.5,26.82-34.85,84.88-18.67,122.55C252.58,887.88,274.14,899,290,893Z"/><path class="cls-1" d="M137.92,783.86c-1.17-13-3.84-25.47-9.78-36.58-9.68-18.09-24.9-25.69-42.2-21.37-13.1,3.27-23.63,12-33.43,22.61C22.41,781.28,5,821.33,5,875.11c.18,14.09,1.37,31.49,7.71,47.64,7,17.83,18.69,26.85,34.75,27.39,17.66.58,32.2-8.88,45-22.47C128.2,889.71,143.09,841.48,137.92,783.86Zm-46.17,30.6c-.81,19.19-5.81,36.67-16.32,51.25-5.74,7.95-13,11.06-18.23,7.53-6.72-4.54-6.59-13.09-7-21.67,1.31-17.67,5.53-34.58,15-49,4.38-6.63,9.71-11.77,17.33-9C88.19,795.71,92.19,804.16,91.75,814.46Z"/><path class="cls-1" d="M211.43,814l4.11-2.37c16.78-9.67,26.65-30.48,25.19-53.08-1.22-18.75-15.48-34.49-33.43-37.22-26.64-4.05-49.89,7.72-73.4,23.25,9.7,4.29,13.92,9.37,17.39,20.35a74.92,74.92,0,0,1,2.09,8.22c5.2,27.16,3.28,54-3,80.47-6.33,26.73-16.14,50.18-39.69,60-5.14,2.15-5.67,6.41-4.23,13.19A172.61,172.61,0,0,1,110,949.75c.6,8.12.13,16.36.13,24.55,11.56-.62,23.69-9.38,36-24.47,24.06-29.45,30.12-65.69,27-105.8,9.08,13.83,13.6,29.38,14.53,46.88,1,19-6,32.47-19.94,43.19,20.19-1,37.86,1.86,53.37,16.44,10.35-22,17.86-44.64,15.15-70C233.65,855.59,224.07,833.93,211.43,814Zm-5.62-41.92c-4.28,7.13-10.31,10.32-17.27,10.59-1.38.06-3.44-2.12-4.14-3.89-3.62-9.19-6.9-18.59-10.56-28.63,9.61-.91,19-1.6,28,3.39C209.47,757.74,210.79,763.79,205.81,772.08Z"/><path class="cls-1" d="M775.81,905.52c-6.1-22.89-7.87-46.64-9-70.49-1.69-35-.61-70,2.13-104.9,1.91-24.36,4.29-48.67,6.76-73,1-9.63,2.78-19.13,4.17-28.42L733,636.37c-.28,4-.4,8.11-.88,12.17-2.85,24.21-5.84,48.4-8.59,72.64a10.41,10.41,0,0,0,1.67,6.1c4.75,7.24,8.09,15.27,8.35,24.6.56,20.08-7.81,35.15-18.64,48.8a18.36,18.36,0,0,0-3.41,7.69c-5.5,29.83-10.59,59.78-16.24,89.57-4.45,23.5-16.26,40.13-33.51,51.2-2.67,1.71-5.29,3.53-7.92,5.35-1,.68-1.94,1.49-2.33,1.79l66.8-6.22a32.29,32.29,0,0,0,.23-3.41c-.86-38.84,2.84-77.26,7.15-115.62.2-1.83,2.06-4.79,3.19-4.82,5.41-.14,10.84.54,16.37.94-1.88,35.8-1.62,70.17,4.83,104.11l40.7,2.9C782.59,925,779.3,918.61,775.81,905.52ZM744.88,796.89l-13.36-2.5c4.77-26.22,9.45-51.89,14.13-77.57l1.39,0C746.33,743.24,745.61,769.67,744.88,796.89Z"/><path class="cls-1" d="M607.69,913.94,652,920.05c-4.41-32.84-5.31-67.18-2.26-84.14L673.21,883l19.69-32.46-24-33.92c.3-.5.61-1,.92-1.5,11.82,1.3,22.61-3,32.72-9.73C717.7,795.3,727.63,780.1,730,758.72c2.41-21.75-12.46-40.09-28.51-35.51-12.59,3.59-24.1,9.63-35.59,16.23-11,6.34-22,12.84-32.89,19.6-1.37.84-2.61,3.61-2.74,5.61A880.17,880.17,0,0,1,614,884.35C611.93,894.6,609.66,904.79,607.69,913.94Zm54-147.89c9.46-6.65,18.66-13.79,29.94-14.33,3.85-.18,8.71-1.5,10.51,4.42,1.92,6.33-2.11,9.65-5.8,12.74-11.42,9.56-23.92,15.27-37.77,16.22a13.8,13.8,0,0,1-2.49-.07c-.3,0-.57-.36-.9-.58C654.11,776.57,655.42,770.49,661.74,766.05Z"/><path class="cls-1" d="M591.81,157.64l-83.53-26.1c1.34,10.33,3.26,21.33,4.08,32.44A67.58,67.58,0,0,1,506.07,198c-4.51-15.74-8.79-30.15-12.71-44.71-1.06-4-2.54-4.85-5.74-4.54-10.18,1-20.38,1.91-30.58,2.14-6.93.15-13.87-.9-21.51-1.46l43.38-50.8L416.82,52.55c-3,17.38-11.28,31-20.53,43.9a234.71,234.71,0,0,1-30.12,34.6L364.33,130c8.41-37.67,16.83-75.34,25.46-114-24.6,12.26-49.59,11.62-75.08,9.26-3.74,95.71-13.5,190.13-27.59,285,19.66-13,39.91-18.35,61-18.87-1.91-12.63-3.84-24.5-5.41-36.44-.36-2.72-.34-7,1-8.32,7.5-7.17,15.43-13.64,23.82-20.86,6.83,32.12,7.92,63-3.08,93.59L453,304.59c-1.57-50-13.22-93.71-52.28-120.07l27.44-28.79c3.4,7.13,7.21,13.47,9.64,20.53,8.61,25,16.42,50.36,25.23,75.22,3.54,10,3.11,17.32-4.66,23.23-3.21,2.44-3.79,6-3.36,10.54.74,7.89.75,15.88,1.06,23.64-13,3.52-25.78,2.68-37,6.88l22.84,50.08c.41-.32,1.41-1.05,2.35-1.88a598.75,598.75,0,0,0,68.09-69.25c28.51-34.38,53.68-71.9,71.8-116C587,171.67,589.4,164.28,591.81,157.64Z"/><path class="cls-1" d="M305.06,112.23c-3.68-29-17-44.95-40.83-44.82-13.93.08-25.64,8.44-37,17.45-1.47,1.17-2.9,2.42-4.34,3.63l-1.6-.68c.57-24.15,1.14-48.3,1.72-73-55.74,21-112.38,37-171.31,39.61,3.53,28.52-.2,55.33-8.56,82.78l67.69-11.88c0,2.23.12,3.66,0,5-1.26,12.44-2,25-4,37.29-5.48,34-15.11,66.43-26.43,97.49,12.38-1.63,24.79-4.66,37.17-4.51s25,3.44,37.66,5.39c-1-12-3.06-24.94-2.79-37.77.74-36.61,2.42-73.18,3.89-109.76.06-1.46,1.56-3.77,2.68-4.1,16.27-4.64,32.58-9,49.43-13.61a22,22,0,0,1-1.44,2.46C185.18,130,171.92,162.06,168,199.72c-1.67,15.91-1.25,31.76,5.05,46.38,5.68,13.15,14,22.55,26.36,25.18,20.2,4.31,38.15-2.56,54.15-17.63,18-16.94,30.49-39.22,39.66-64.32C302.12,164.87,308.53,139.52,305.06,112.23Zm-75.67,95.66c-4.69,4.26-10.37,5.51-15.55,1.41-4.77-3.78-5.3-10.33-4.48-16.59,2.24-17.27,8.87-31.7,19.86-42.84a22.85,22.85,0,0,1,7.95-5c9.4-3.71,15.11,1.59,15,16.88C249.76,178.57,242.87,195.64,229.39,207.89Z"/><path class="cls-1" d="M621.68,208.9c-9.71-10-21.27-8.83-32.37-3.65-21.68,10.12-41.73,46.55-41.73,75.24,0,2.26-.12,4.54,0,6.79.93,14.65,6.76,25.28,16.61,27.6,5.21,1.22,11.43,1.36,16.23-1C604.81,302,622.7,281.56,630.51,250,634.36,234.49,632.13,219.66,621.68,208.9Zm-35.17,66.31c-5.94,1.45-8.94-1.59-8.91-9,0-9,7.82-22.35,14.78-25.27,4.84-2,9.11,1.35,9.74,7.71C603.1,258.58,594.47,273.28,586.51,275.21Z"/><path class="cls-1" d="M718.34,478.64c-24.09,35.38-55.67,52.56-91.57,62.57,7.89,4.31,10.5,11.71,12.29,19.9,10.67,48.69,9.24,97.82,3.51,147.07-1.26,10.81-3.43,21.46-5.22,32.47,19.81-22.49,44.87-26.43,69.93-31.35-3-20.46-.55-40.46,3.43-61.7-11.33,13.1-23.69,21.18-37.17,27.19a11.26,11.26,0,0,1-.8-2.22c-.84-14-1.73-27.92-2.33-41.9-.06-1.43,1.38-3.89,2.5-4.31,5.58-2.05,11.22-4.39,17-5.09,7-.86,14.19-.21,21.07-.21,1.2-17,2.46-34.54,3.73-52.47l-48.58,22.69c-1.31-11-2.45-20.88-3.69-30.78-1.41-11.19-1.48-11.28,7.53-14.77,17.65-6.83,35.84-7.82,54.16-7.34,1.75.05,3.51,0,5.35,0C725.71,518.28,722.1,498.85,718.34,478.64Z"/><path class="cls-1" d="M598,538c-6.71-13.87-9.58-28.48-7.11-44.32,1.76-11.31,5.23-21.82,12.95-29.14,4.28-4.07,9.19-4.93,14.12-1.54,4.42,3,6.2,8.66,5.32,16-2.21,18.49-10.9,28.83-28,32.82l28.68,21.05c9.67-9.28,16.37-21.54,21.25-34.79,6.42-17.46,5.68-35.13-4.67-50.48-10.08-14.94-23.38-18.58-38.14-13.23-16.24,5.9-25.9,20.44-31.43,39.37-2.59,8.86-2.2,8.9-10,9.13-9.21.26-18.41.87-27.62,1.16-3.65.12-5.69,1.72-6.65,6.43-2.88,14.15-6.18,28.17-9.25,42.26-.8,3.65-1.39,7.37-2.1,11.18l10.57,1.85c-5,34.43-9.92,68.31-15,103.29a18.63,18.63,0,0,1-1.21-2.82C505,614.58,482,597,461,593.32c-14.46-2.54-29.4-1.1-44.13-1.05-7.26,0-14.51.92-22.66,1.48,5.74,4,10.67,7,15.25,10.66a37.73,37.73,0,0,1,13.45,20.11c5.73,21.22,6,42.87,3.42,64.7-1.08,9.19-2.77,18.28-4.06,26.62a77.78,77.78,0,0,1,9.31-.46c8,.54,16,2.26,24,1.91,18.57-.83,34-10,45.18-28.74,2.53-4.24,4.75-8.77,7.72-14.27-.94,10.6-1.59,20-2.75,29.23-.21,1.62-2.43,3.57-4,4.1-5.79,1.95-11.74,3.2-17.55,5.11a5.36,5.36,0,0,0-3,3.8c-.22,13.12-.14,26.24-.14,39.41,9.35-1.67,19.19-3.85,29.11-5.08,10.09-1.26,20.25-1.59,30.27-2.32.89-15,1.79-30.06,2.72-45.66l-17,1.23c0-2-.07-3.25,0-4.46,1.81-27.07,2.88-54.26,5.69-81.17,2.37-22.78,6.84-45.22,10.21-67.86.63-4.23,2.25-5.42,5.46-4.89s6.62.74,10.32,1.13c2.05-18.55,3.75-36.91,9.54-54.23-.79,18,4.45,33.4,11.68,48.48,10.63,22.2,20.06,45.13,21.46,71.66.66,12.63,1.12,25.17-3.57,36.9-3.6,9-11.07,13.14-18.4,10.63-8.48-2.9-13-11-12.25-21.75s4.36-19.67,10.93-25.18c-2.51-12.4-4.82-23.82-7.22-35.66-15.77,13.53-28.68,30.27-34.35,53.87a53.3,53.3,0,0,0-1.46,18.16c4.16,34.65,32.8,57.68,60.37,48.53,18-6,37.07-22.29,39.2-52.25,1.13-15.77-.14-31-6.31-45C618,579.76,608,558.8,598,538ZM454.17,676.32c3.34-21.2,2.6-42-4.39-62.08,14.14-.14,29.16,13.57,29.27,27.07C479.18,657.29,468.92,674.23,454.17,676.32Z"/><path class="cls-1" d="M192.45,589.86c-9.34-28.11-26.84-45.34-50-52.26-18.25-5.45-37.21-7.53-55.95-10.15C74.89,525.82,63.13,526,51,525.33,47.11,596.47,28.52,661.69,7.78,727c18.42-7,34.62,0,50.27,9.65,6-2.93,5.21-9.48,5.57-15.26,1.58-25.36,5.61-50,13.12-73.79,3.91-12.39,3.91-12.15,14.44-9.79,23,5.17,46.1,7.57,69.32,1.85,11.43-2.81,21.85-7.8,28.93-20.1A34.65,34.65,0,0,0,192.45,589.86Zm-81.31-7.25c1.36,9.95,2.81,20.56,4.27,31.18l-1.19.75L94.75,588.11,71.23,615.9l-1-.38,13.47-34.83-18.63-16.4c5,0,8.84-.07,12.7,0a24.8,24.8,0,0,1,6.5.65c5.65,1.68,9.48-.19,11.78-7.16,1.16-3.49,3.36-6.46,5.72-10.85,1.36,5.63,2.52,9.86,3.38,14.18.74,3.73,2.17,5.36,5.53,5.17,6.31-.35,12.64-.1,19-.1.19.56.39,1.12.58,1.67C124.07,572.67,117.86,577.45,111.14,582.61Z"/><path class="cls-1" d="M258.23,643.49c10.79,4.91,21.86,5.16,33,3.57,14.05-2,25.91-8.33,30.21-26.49,4.68-19.79,1.93-37.94-10.58-52.74a62.85,62.85,0,0,0-25.2-18.5C265.87,541.59,246.41,545,227,552c-4.13,1.49-5.78,4.11-6.24,9.36a793.65,793.65,0,0,1-17.13,110.66c-3.14,13.53-6.87,26.86-10.41,40.6,13.37.15,25.71,4.55,38,13.55,1.42-19.81,2.76-38.46,4.1-57.11,8.57,20.49,8.55,42.54,8.54,63.66L282,701.54c-8.27-18.76-16.63-37.75-25-56.73Zm-11.79-45a56,56,0,0,0,2.27-12c.45-6.75,3.58-9.3,8.53-10.64,10.7-2.91,22.71,3,27.73,14.18,4.59,10.18,1.57,18.77-7.67,21.54a37,37,0,0,1-5.66,1c-9-.14-16.17-2.25-22.79-7.18C246.61,603.75,245.36,602.14,246.44,598.52Z"/><path class="cls-1" d="M381.27,553.36c-7.68,1.38-15,2.79-22.41,4-4.57.75-10.67-.78-13.34,2.3-3,3.46-2.85,11-4.18,16.7-9.57,41.08-23.08,79.79-45.46,113.08-2.5,3.72-5.23,7.22-8.33,11.48,18.24,1.68,34.49,7.56,48.59,21.68,4.11-13.86,8.08-27.26,12.15-41,8,2.07,15.36,3.79,22.63,6,1.57.48,3.28,2.44,4.08,4.28,4.31,9.92,8.35,20,12.32,29.65,10.89-4.2,21.07-8.12,32-12.36-12.67-23.51-23.16-47.73-30.13-74.09S378.69,581.65,381.27,553.36ZM355.1,649c.73-5.77,1.4-11,2.07-16.28l1.24.4c1.44,5.15,2.88,10.29,4.45,15.88Z"/><path class="cls-1" d="M132.89,648.43a6.57,6.57,0,0,0-4.21,3.59c-7.41,16.73-14.48,33.7-22,50.39-2.47,5.52-5.83,10.43-8.55,15.2l35,12.76c1.47-6.78,3.57-14,4.48-21.35.75-6,2.87-8.22,7.54-7.6a46.37,46.37,0,0,0,5.06,0c-1.39,9.15-2.65,17.44-4,26.18l40.11-14.49q-8.26-35.26-16.22-69.25C157.16,645.43,145,646.75,132.89,648.43Zm9.23,37.28c.52-4,1-7.87,1.51-11.69l1.45-.2c.86,4.1,1.71,8.2,2.73,13.12Z"/><path d="M186.12,435.83c-4.68-21.47-17.43-34.61-33.33-43.38-7.31-4-14.93-7.22-22.49-10.53-10.52-4.61-18-13.24-22.71-25.52s-2.62-25.22,5.14-34.58c9.12-11,22.12-8,26,6,2.85,10.35.32,20.45-6.89,26.83-2.15,1.91-4.55,3.37-7.07,5.21,1,.45,1.71.86,2.49,1.17,14.26,5.76,28.61,11.22,42.74,17.45,4,1.75,6.11,1,7.33-3.44,3.06-11.24,7.27-22.34,8.55-33.91,2.74-24.85-2.12-47.29-19.41-63.1-16-14.6-34.32-18.76-53.42-14.05-28.47,7-49.64,26.35-59.57,60.87-4.89,17-4.71,35,2.71,50.89s19.17,25.72,34,30.38c9.31,2.94,18.36,7.53,27.16,12.39,7.63,4.22,12.54,12.28,15.37,21.9,4.3,14.6-2.14,27.5-14.24,28.61-13.24,1.21-23.76-6.86-34.1-15.51-6.49-5.43-8-13.79-9.22-22.4a6.73,6.73,0,0,0-.77-1.66c-26.87,11-49.11-2.79-70.8-20C11.12,422.61,15,437.1,16.2,452.72c1.08,13.75,6.18,25,13.75,34.84a76.49,76.49,0,0,0,29.79,23.38c21.34,9.6,43.28,9.55,65.41,5.68,15.86-2.77,30.57-9.17,43.21-21.51C184,479.85,191.46,460.32,186.12,435.83Z"/><path d="M329.74,420.76c-2.41,1.43-4.05,2.42-5.7,3.37-16.58,9.51-33.64,16.42-52.29,14-6.9-.89-13.51-3.1-19.13-8.67,44.21-34.78,72.62-85.78,100.5-137.46a5.08,5.08,0,0,0-2.87,1.11c-19.18,12.95-39.68,19.55-61.58,18.92-3.71-.11-5.2,1.45-6.39,5.54-4,13.76-10,26.11-19.17,35.62-3.21,3.32-7,5.8-11.65,9.59,3-34,11-63.72,26.16-92.4-22,11.87-43.6,17-66.34,15.63-1.79,90.55-18.43,176.91-39.91,261.09l59.15-8V496.45c29,10.58,56.85,22.18,86.56,24C318,486.13,318.43,452.81,329.74,420.76Z"/><path d="M410.86,312.75l-54.67,11.39C353.77,401,341.7,476,309.53,544.4L333.71,562c1.63-5.19,3.07-9.76,4.35-13.82,4.95-.28,9.43-.59,13.91-.77,2.7-.11,4.07-1.49,4.82-4.91,1.61-7.33,3.56-14.56,5.7-21.69.48-1.63,2.17-3.68,3.44-3.84,14-1.81,28.05-2.72,41.95-5.11,5.49-.95,6.74,1.35,8.05,6.81,4.63,19.27,9.62,38.4,14.59,58.08,23.78-3.23,46.62-10,69.81-18.14C461.39,480.84,429.62,400.08,410.86,312.75Zm-37,148.65c2.5-17.73,4.9-34.78,7.31-51.83l1.18-.18,16.64,52Z"/><path d="M585.73,897.38c-11.47-39-9.21-78,.79-116.84,4.91-19.09,5.65-19.62,22.14-19.75,4.07,0,8.14,0,12.65,0-6.41-24.23-7-48.47-7.94-74.07-22.14,31.63-48.63,52.79-79.71,64.74,1.89,3.34,3.59,6.36,5.29,9.39l-.88.78a4.43,4.43,0,0,1-1.25-.72c-16.45-18.72-41.33-14.84-56.93,1.62-14.39,15.19-16.49,37.45-5.18,56.25,5.48,9.1,10.61,18.53,16.35,27.38,8.12,12.5,8.42,23,.91,38.65-3.46,7.23-10.47,11-17.2,9.6s-11.46-8.49-9.9-16.85a52.36,52.36,0,0,1,5.46-14.95c2.52-4.67,6.09-8.5,9.49-13.06l-24.33-21.83c-13.27,16.62-18.86,36-16.52,58.4,2.2,21,11.09,36.5,27.84,43.54,19.29,8.12,42.28-1.07,53.87-20.87,11.84-20.24,11.69-50.7-.31-70.69-6.24-10.4-14.54-17.41-24-22.62-6.19-3.4-9.63-9.38-9.07-14.78.61-6,6.09-13.56,11.89-14.09,3.78-.35,8.68,1,11.4,3.92,4.39,4.76,7.6,11.3,10.92,17.4,1.87,3.41,3,7.45,4.58,11.66,4.61-16.16,9-31.72,13.48-47.28,3.78,11.82,1.85,23.24.33,33.49l31.61-30.51,1.33,1.6c-7.53,58.28-17.2,115.56-50.54,161.08l85,3.78c-1.24-2-2.33-3.71-3.46-5.43A143.93,143.93,0,0,1,585.73,897.38Z"/><path d="M388.61,721.7l-31.86,2.44c-1.52,14.91-3,29.3-4.48,43.82l-15.42-2.79c1.65-15,3.22-29.37,4.73-43.13l-31-3.24c-2,31.27-5.08,62.55-20.54,89.9,6.58,2.79,12.81,5.17,18.86,8.12,3.12,1.52,5.25.65,6.9-2.45,3.19-6,6.09-12.27,9.38-18.2.83-1.5,2.85-3.28,4-3,5.85,1.46,11.6,3.56,17.5,5.47a41.18,41.18,0,0,1-.22,4.27c-4.48,26.81-11.58,52.23-24.88,74.69-13.14,22.19-29.89,33.53-53.23,28.26,4.72,21.58-2.67,36.76-16.38,48.94,16-2.44,31.5-5.12,47-8.55,21.32-4.73,37.75-18.21,47.75-42.4,2.65-6.42,5.38-12.79,7.79-19.34,14.5-39.39,23.62-80.73,29.15-123.33C385.3,748.1,386.92,735,388.61,721.7Z"/><path d="M398.23,839.64c10.93,2.41,18.91,11,26.69,19.8,2.88,3.26,5.31,7.11,8.06,10.83,5.06-16.76,9.76-32.3,14.6-48.29-14.48-11-31.1-15.77-48-21.37,2.82-9.15,5.51-17.88,8.38-27.22,21.62,9.16,39.37,25.46,57,40.49-1.77-26-3.54-52-5.34-78.42a271.08,271.08,0,0,0-69.92,1c-2.31,60.4-14.24,118.09-26.45,176.23,22.26-.74,43,1.89,58.64,22.8,3.53-17.11,7-33.75,10.51-50.89-14.44-8.55-29.8-6.4-45.3-5.25,1.29-11.61,2.46-22.41,3.71-33.2C391.68,838.85,392.24,838.32,398.23,839.64Z"/><path d="M285,888c15.63-5.93,32.38-38,31.9-60.16l-32.46-6.61c-.64,3.52-1.19,8.44-2.48,13a59.28,59.28,0,0,1-5.11,13.28c-6.21,10.88-16.09,10.25-20.6-1.78a87.48,87.48,0,0,1-5-23c-1.54-18.43,1.31-35.75,11.85-50,10.79-14.54,18.24-16.08,31.52-7.49q.92-18.21,1.88-37.28c-14.38-3-27,2.17-38.49,13.35-27.5,26.82-34.85,84.88-18.67,122.55C247.58,882.88,269.14,894,285,888Z"/><path d="M132.92,778.86c-1.17-13-3.84-25.47-9.78-36.58-9.68-18.09-24.9-25.69-42.2-21.37-13.1,3.27-23.63,12-33.43,22.61C17.41,776.28,0,816.33,0,870.11c.18,14.09,1.37,31.49,7.71,47.64,7,17.83,18.69,26.85,34.75,27.39,17.66.58,32.2-8.88,45-22.47C123.2,884.71,138.09,836.48,132.92,778.86Zm-46.17,30.6c-.81,19.19-5.81,36.67-16.32,51.25-5.74,7.95-13,11.06-18.23,7.53-6.72-4.54-6.59-13.09-7-21.67,1.31-17.67,5.53-34.58,15-49,4.38-6.63,9.71-11.77,17.33-9C83.19,790.71,87.19,799.16,86.75,809.46Z"/><path d="M206.43,809l4.11-2.37c16.78-9.67,26.65-30.48,25.19-53.08-1.22-18.75-15.48-34.49-33.43-37.22-26.64-4.05-49.89,7.72-73.4,23.25,9.7,4.29,13.92,9.37,17.39,20.35a74.92,74.92,0,0,1,2.09,8.22c5.2,27.16,3.28,54-3,80.47-6.33,26.73-16.14,50.18-39.69,60-5.14,2.15-5.67,6.41-4.23,13.19A172.61,172.61,0,0,1,105,944.75c.6,8.12.13,16.36.13,24.55,11.56-.62,23.69-9.38,36-24.47,24.06-29.45,30.12-65.69,27-105.8,9.08,13.83,13.6,29.38,14.53,46.88,1,19-6,32.47-19.94,43.19,20.19-1,37.86,1.86,53.37,16.44,10.35-22,17.86-44.64,15.15-70C228.65,850.59,219.07,828.93,206.43,809Zm-5.62-41.92c-4.28,7.13-10.31,10.32-17.27,10.59-1.38.06-3.44-2.12-4.14-3.89-3.62-9.19-6.9-18.59-10.56-28.63,9.61-.91,19-1.6,28,3.39C204.47,752.74,205.79,758.79,200.81,767.08Z"/><path d="M770.81,900.52c-6.1-22.89-7.87-46.64-9-70.49-1.69-35-.61-70,2.13-104.9,1.91-24.36,4.29-48.67,6.76-73,1-9.63,2.78-19.13,4.17-28.42L728,631.37c-.28,4-.4,8.11-.88,12.17-2.85,24.21-5.84,48.4-8.59,72.64a10.41,10.41,0,0,0,1.67,6.1c4.75,7.24,8.09,15.27,8.35,24.6.56,20.08-7.81,35.15-18.64,48.8a18.36,18.36,0,0,0-3.41,7.69c-5.5,29.83-10.59,59.78-16.24,89.57-4.45,23.5-16.26,40.13-33.51,51.2-2.67,1.71-5.29,3.53-7.92,5.35-1,.68-1.94,1.49-2.33,1.79l66.8-6.22a32.29,32.29,0,0,0,.23-3.41c-.86-38.84,2.84-77.26,7.15-115.62.2-1.83,2.06-4.79,3.19-4.82,5.41-.14,10.84.54,16.37.94-1.88,35.8-1.62,70.17,4.83,104.11l40.7,2.9C777.59,920,774.3,913.61,770.81,900.52ZM739.88,791.89l-13.36-2.5c4.77-26.22,9.45-51.89,14.13-77.57l1.39,0C741.33,738.24,740.61,764.67,739.88,791.89Z"/><path d="M602.69,908.94,647,915.05c-4.41-32.84-5.31-67.18-2.26-84.14L668.21,878l19.69-32.46-24-33.92c.3-.5.61-1,.92-1.5,11.82,1.3,22.61-3,32.72-9.73C712.7,790.3,722.63,775.1,725,753.72c2.41-21.75-12.46-40.09-28.51-35.51-12.59,3.59-24.1,9.63-35.59,16.23-11,6.34-22,12.84-32.89,19.6-1.37.84-2.61,3.61-2.74,5.61A880.17,880.17,0,0,1,609,879.35C606.93,889.6,604.66,899.79,602.69,908.94Zm54-147.89c9.46-6.65,18.66-13.79,29.94-14.33,3.85-.18,8.71-1.5,10.51,4.42,1.92,6.33-2.11,9.65-5.8,12.74-11.42,9.56-23.92,15.27-37.77,16.22a13.8,13.8,0,0,1-2.49-.07c-.3,0-.57-.36-.9-.58C649.11,771.57,650.42,765.49,656.74,761.05Z"/><path d="M586.81,152.64l-83.53-26.1c1.34,10.33,3.26,21.33,4.08,32.44A67.58,67.58,0,0,1,501.07,193c-4.51-15.74-8.79-30.15-12.71-44.71-1.06-4-2.54-4.85-5.74-4.54-10.18,1-20.38,1.91-30.58,2.14-6.93.15-13.87-.9-21.51-1.46l43.38-50.8L411.82,47.55c-3,17.38-11.28,31-20.53,43.9a234.71,234.71,0,0,1-30.12,34.6L359.33,125c8.41-37.67,16.83-75.34,25.46-114-24.6,12.26-49.59,11.62-75.08,9.26-3.74,95.71-13.5,190.13-27.59,285,19.66-13,39.91-18.35,61-18.87-1.91-12.63-3.84-24.5-5.41-36.44-.36-2.72-.34-7,1-8.32,7.5-7.17,15.43-13.64,23.82-20.86,6.83,32.12,7.92,63-3.08,93.59L448,299.59c-1.57-50-13.22-93.71-52.28-120.07l27.44-28.79c3.4,7.13,7.21,13.47,9.64,20.53,8.61,25,16.42,50.36,25.23,75.22,3.54,10,3.11,17.32-4.66,23.23-3.21,2.44-3.79,6-3.36,10.54.74,7.89.75,15.88,1.06,23.64-13,3.52-25.78,2.68-37,6.88l22.84,50.08c.41-.32,1.41-1.05,2.35-1.88a598.75,598.75,0,0,0,68.09-69.25c28.51-34.38,53.68-71.9,71.8-116C582,166.67,584.4,159.28,586.81,152.64Z"/><path d="M300.06,107.23c-3.68-29-17-44.95-40.83-44.82-13.93.08-25.64,8.44-37,17.45-1.47,1.17-2.9,2.42-4.34,3.63l-1.6-.68c.57-24.15,1.14-48.3,1.72-73-55.74,21-112.38,37-171.31,39.61,3.53,28.52-.2,55.33-8.56,82.78l67.69-11.88c0,2.23.12,3.66,0,5-1.26,12.44-2,25-4,37.29-5.48,34-15.11,66.43-26.43,97.49,12.38-1.63,24.79-4.66,37.17-4.51s25,3.44,37.66,5.39c-1-12-3.06-24.94-2.79-37.77.74-36.61,2.42-73.18,3.89-109.76.06-1.46,1.56-3.77,2.68-4.1,16.27-4.64,32.58-9,49.43-13.61a22,22,0,0,1-1.44,2.46C180.18,125,166.92,157.06,163,194.72c-1.67,15.91-1.25,31.76,5.05,46.38,5.68,13.15,14,22.55,26.36,25.18,20.2,4.31,38.15-2.56,54.15-17.63,18-16.94,30.49-39.22,39.66-64.32C297.12,159.87,303.53,134.52,300.06,107.23Zm-75.67,95.66c-4.69,4.26-10.37,5.51-15.55,1.41-4.77-3.78-5.3-10.33-4.48-16.59,2.24-17.27,8.87-31.7,19.86-42.84a22.85,22.85,0,0,1,7.95-5c9.4-3.71,15.11,1.59,15,16.88C244.76,173.57,237.87,190.64,224.39,202.89Z"/><path d="M616.68,203.9c-9.71-10-21.27-8.83-32.37-3.65-21.68,10.12-41.73,46.55-41.73,75.24,0,2.26-.12,4.54,0,6.79.93,14.65,6.76,25.28,16.61,27.6,5.21,1.22,11.43,1.36,16.23-1C599.81,297,617.7,276.56,625.51,245,629.36,229.49,627.13,214.66,616.68,203.9Zm-35.17,66.31c-5.94,1.45-8.94-1.59-8.91-9,0-9,7.82-22.35,14.78-25.27,4.84-2,9.11,1.35,9.74,7.71C598.1,253.58,589.47,268.28,581.51,270.21Z"/><path d="M713.34,473.64c-24.09,35.38-55.67,52.56-91.57,62.57,7.89,4.31,10.5,11.71,12.29,19.9,10.67,48.69,9.24,97.82,3.51,147.07-1.26,10.81-3.43,21.46-5.22,32.47,19.81-22.49,44.87-26.43,69.93-31.35-3-20.46-.55-40.46,3.43-61.7-11.33,13.1-23.69,21.18-37.17,27.19a11.26,11.26,0,0,1-.8-2.22c-.84-14-1.73-27.92-2.33-41.9-.06-1.43,1.38-3.89,2.5-4.31,5.58-2.05,11.22-4.39,17-5.09,7-.86,14.19-.21,21.07-.21,1.2-17,2.46-34.54,3.73-52.47l-48.58,22.69c-1.31-11-2.45-20.88-3.69-30.78-1.41-11.19-1.48-11.28,7.53-14.77,17.65-6.83,35.84-7.82,54.16-7.34,1.75.05,3.51,0,5.35,0C720.71,513.28,717.1,493.85,713.34,473.64Z"/><path d="M593,533c-6.71-13.87-9.58-28.48-7.11-44.32,1.76-11.31,5.23-21.82,12.95-29.14,4.28-4.07,9.19-4.93,14.12-1.54,4.42,3,6.2,8.66,5.32,16-2.21,18.49-10.9,28.83-28,32.82l28.68,21.05c9.67-9.28,16.37-21.54,21.25-34.79,6.42-17.46,5.68-35.13-4.67-50.48-10.08-14.94-23.38-18.58-38.14-13.23-16.24,5.9-25.9,20.44-31.43,39.37-2.59,8.86-2.2,8.9-10,9.13-9.21.26-18.41.87-27.62,1.16-3.65.12-5.69,1.72-6.65,6.43-2.88,14.15-6.18,28.17-9.25,42.26-.8,3.65-1.39,7.37-2.1,11.18l10.57,1.85c-5,34.43-9.92,68.31-15,103.29a18.63,18.63,0,0,1-1.21-2.82C500,609.58,477,592,456,588.32c-14.46-2.54-29.4-1.1-44.13-1.05-7.26,0-14.51.92-22.66,1.48,5.74,4,10.67,7,15.25,10.66a37.73,37.73,0,0,1,13.45,20.11c5.73,21.22,6,42.87,3.42,64.7-1.08,9.19-2.77,18.28-4.06,26.62a77.78,77.78,0,0,1,9.31-.46c8,.54,16,2.26,24,1.91,18.57-.83,34-10,45.18-28.74,2.53-4.24,4.75-8.77,7.72-14.27-.94,10.6-1.59,20-2.75,29.23-.21,1.62-2.43,3.57-4,4.1-5.79,1.95-11.74,3.2-17.55,5.11a5.36,5.36,0,0,0-3,3.8c-.22,13.12-.14,26.24-.14,39.41,9.35-1.67,19.19-3.85,29.11-5.08,10.09-1.26,20.25-1.59,30.27-2.32.89-15,1.79-30.06,2.72-45.66l-17,1.23c0-2-.07-3.25,0-4.46,1.81-27.07,2.88-54.26,5.69-81.17,2.37-22.78,6.84-45.22,10.21-67.86.63-4.23,2.25-5.42,5.46-4.89s6.62.74,10.32,1.13c2.05-18.55,3.75-36.91,9.54-54.23-.79,18,4.45,33.4,11.68,48.48,10.63,22.2,20.06,45.13,21.46,71.66.66,12.63,1.12,25.17-3.57,36.9-3.6,9-11.07,13.14-18.4,10.63-8.48-2.9-13-11-12.25-21.75s4.36-19.67,10.93-25.18c-2.51-12.4-4.82-23.82-7.22-35.66-15.77,13.53-28.68,30.27-34.35,53.87a53.3,53.3,0,0,0-1.46,18.16c4.16,34.65,32.8,57.68,60.37,48.53,18-6,37.07-22.29,39.2-52.25,1.13-15.77-.14-31-6.31-45C613,574.76,603,553.8,593,533ZM449.17,671.32c3.34-21.2,2.6-42-4.39-62.08,14.14-.14,29.16,13.57,29.27,27.07C474.18,652.29,463.92,669.23,449.17,671.32Z"/><path d="M187.45,584.86c-9.34-28.11-26.84-45.34-50-52.26-18.25-5.45-37.21-7.53-55.95-10.15C69.89,520.82,58.13,521,46,520.33,42.11,591.47,23.52,656.69,2.78,722c18.42-7,34.62,0,50.27,9.65,6-2.93,5.21-9.48,5.57-15.26,1.58-25.36,5.61-50,13.12-73.79,3.91-12.39,3.91-12.15,14.44-9.79,23,5.17,46.1,7.57,69.32,1.85,11.43-2.81,21.85-7.8,28.93-20.1A34.65,34.65,0,0,0,187.45,584.86Zm-81.31-7.25c1.36,9.95,2.81,20.56,4.27,31.18l-1.19.75L89.75,583.11,66.23,610.9l-1-.38,13.47-34.83-18.63-16.4c5,0,8.84-.07,12.7,0a24.8,24.8,0,0,1,6.5.65c5.65,1.68,9.48-.19,11.78-7.16,1.16-3.49,3.36-6.46,5.72-10.85,1.36,5.63,2.52,9.86,3.38,14.18.74,3.73,2.17,5.36,5.53,5.17,6.31-.35,12.64-.1,19-.1.19.56.39,1.12.58,1.67C119.07,567.67,112.86,572.45,106.14,577.61Z"/><path d="M253.23,638.49c10.79,4.91,21.86,5.16,33,3.57,14.05-2,25.91-8.33,30.21-26.49,4.68-19.79,1.93-37.94-10.58-52.74a62.85,62.85,0,0,0-25.2-18.5C260.87,536.59,241.41,540,222,547c-4.13,1.49-5.78,4.11-6.24,9.36a793.65,793.65,0,0,1-17.13,110.66c-3.14,13.53-6.87,26.86-10.41,40.6,13.37.15,25.71,4.55,38,13.55,1.42-19.81,2.76-38.46,4.1-57.11,8.57,20.49,8.55,42.54,8.54,63.66L277,696.54c-8.27-18.76-16.63-37.75-25-56.73Zm-11.79-45a56,56,0,0,0,2.27-12c.45-6.75,3.58-9.3,8.53-10.64,10.7-2.91,22.71,3,27.73,14.18,4.59,10.18,1.57,18.77-7.67,21.54a37,37,0,0,1-5.66,1c-9-.14-16.17-2.25-22.79-7.18C241.61,598.75,240.36,597.14,241.44,593.52Z"/><path d="M376.27,548.36c-7.68,1.38-15,2.79-22.41,4-4.57.75-10.67-.78-13.34,2.3-3,3.46-2.85,11-4.18,16.7-9.57,41.08-23.08,79.79-45.46,113.08-2.5,3.72-5.23,7.22-8.33,11.48,18.24,1.68,34.49,7.56,48.59,21.68,4.11-13.86,8.08-27.26,12.15-41,8,2.07,15.36,3.79,22.63,6,1.57.48,3.28,2.44,4.08,4.28,4.31,9.92,8.35,20,12.32,29.65,10.89-4.2,21.07-8.12,32-12.36-12.67-23.51-23.16-47.73-30.13-74.09S373.69,576.65,376.27,548.36ZM350.1,644c.73-5.77,1.4-11,2.07-16.28l1.24.4c1.44,5.15,2.88,10.29,4.45,15.88Z"/><path d="M127.89,643.43a6.57,6.57,0,0,0-4.21,3.59c-7.41,16.73-14.48,33.7-22,50.39-2.47,5.52-5.83,10.43-8.55,15.2l35,12.76c1.47-6.78,3.57-14,4.48-21.35.75-6,2.87-8.22,7.54-7.6a46.37,46.37,0,0,0,5.06,0c-1.39,9.15-2.65,17.44-4,26.18l40.11-14.49q-8.26-35.26-16.22-69.25C152.16,640.43,140,641.75,127.89,643.43Zm9.23,37.28c.52-4,1-7.87,1.51-11.69l1.45-.2c.86,4.1,1.71,8.2,2.73,13.12Z"/></g></g></svg>